<?xml version="1.0" encoding="UTF-8" standalone="no"?>
<!DOCTYPE svg PUBLIC "-//W3C//DTD SVG 1.1//EN"
 "http://www.w3.org/Graphics/SVG/1.1/DTD/svg11.dtd">
<!-- Generated by graphviz version 2.44.1 (20200629.0846)
 -->
<!-- Pages: 1 -->
<svg width="390pt" height="660pt"
 viewBox="0.00 0.00 390.00 660.00" xmlns="http://www.w3.org/2000/svg" xmlns:xlink="http://www.w3.org/1999/xlink">
<g id="graph0" class="graph" transform="scale(1 1) rotate(0) translate(4 656)">
<polygon fill="transparent" stroke="transparent" points="-4,4 -4,-656 386,-656 386,4 -4,4"/>
<g id="clust1" class="cluster">
<title>cluster_all</title>
<path fill="#dddddd" stroke="transparent" d="M20,-8C20,-8 362,-8 362,-8 368,-8 374,-14 374,-20 374,-20 374,-632 374,-632 374,-638 368,-644 362,-644 362,-644 20,-644 20,-644 14,-644 8,-638 8,-632 8,-632 8,-20 8,-20 8,-14 14,-8 20,-8"/>
</g>
<g id="clust2" class="cluster">
<title>cluster_main</title>
<path fill="#dddddd" stroke="transparent" d="M146,-88C146,-88 198,-88 198,-88 204,-88 210,-94 210,-100 210,-100 210,-560 210,-560 210,-566 204,-572 198,-572 198,-572 146,-572 146,-572 140,-572 134,-566 134,-560 134,-560 134,-100 134,-100 134,-94 140,-88 146,-88"/>
</g>
<g id="clust3" class="cluster">
<title>cluster_rela</title>
<path fill="#dddddd" stroke="transparent" d="M62,-304C62,-304 114,-304 114,-304 120,-304 126,-310 126,-316 126,-316 126,-416 126,-416 126,-422 120,-428 114,-428 114,-428 62,-428 62,-428 56,-428 50,-422 50,-416 50,-416 50,-316 50,-316 50,-310 56,-304 62,-304"/>
</g>
<g id="clust4" class="cluster">
<title>cluster_relb</title>
<path fill="#dddddd" stroke="transparent" d="M62,-16C62,-16 114,-16 114,-16 120,-16 126,-22 126,-28 126,-28 126,-128 126,-128 126,-134 120,-140 114,-140 114,-140 62,-140 62,-140 56,-140 50,-134 50,-128 50,-128 50,-28 50,-28 50,-22 56,-16 62,-16"/>
</g>
<g id="clust5" class="cluster">
<title>cluster_feata</title>
<path fill="#dddddd" stroke="black" stroke-dasharray="5,2" d="M308,-232C308,-232 354,-232 354,-232 360,-232 366,-238 366,-244 366,-244 366,-488 366,-488 366,-494 360,-500 354,-500 354,-500 308,-500 308,-500 302,-500 296,-494 296,-488 296,-488 296,-244 296,-244 296,-238 302,-232 308,-232"/>
</g>
<g id="clust6" class="cluster">
<title>cluster_featb</title>
<path fill="#dddddd" stroke="black" stroke-dasharray="5,2" d="M230,-160C230,-160 276,-160 276,-160 282,-160 288,-166 288,-172 288,-172 288,-272 288,-272 288,-278 282,-284 276,-284 276,-284 230,-284 230,-284 224,-284 218,-278 218,-272 218,-272 218,-172 218,-172 218,-166 224,-160 230,-160"/>
</g>
<!-- main1 -->
<g id="node1" class="node">
<title>main1</title>
<polygon fill="#eecc33" stroke="black" points="202,-564 142,-564 142,-528 202,-528 202,-564"/>
<text text-anchor="middle" x="172" y="-543.5" font-family="Times,serif" font-size="10.00">release&#45;2.3</text>
</g>
<!-- main2 -->
<g id="node2" class="node">
<title>main2</title>
<ellipse fill="#eecc33" stroke="black" cx="171" cy="-474" rx="27" ry="18"/>
</g>
<!-- main1&#45;&gt;main2 -->
<g id="edge1" class="edge">
<title>main1&#45;&gt;main2</title>
<path fill="none" stroke="black" d="M171.75,-527.7C171.64,-519.98 171.51,-510.71 171.39,-502.11"/>
<polygon fill="black" stroke="black" points="174.89,-502.05 171.24,-492.1 167.89,-502.15 174.89,-502.05"/>
</g>
<!-- feata0 -->
<g id="node12" class="node">
<title>feata0</title>
<ellipse fill="#cc88dd" stroke="black" cx="331" cy="-474" rx="27" ry="18"/>
</g>
<!-- main1&#45;&gt;feata0 -->
<g id="edge14" class="edge">
<title>main1&#45;&gt;feata0</title>
<path fill="none" stroke="black" d="M202.35,-529.71C203.58,-529.12 204.8,-528.55 206,-528 237.18,-513.61 273.34,-498.44 298.73,-488.03"/>
<polygon fill="black" stroke="black" points="300.3,-491.17 308.23,-484.15 297.65,-484.69 300.3,-491.17"/>
</g>
<!-- main3 -->
<g id="node3" class="node">
<title>main3</title>
<ellipse fill="#eecc33" stroke="black" cx="171" cy="-402" rx="27" ry="18"/>
</g>
<!-- main2&#45;&gt;main3 -->
<g id="edge2" class="edge">
<title>main2&#45;&gt;main3</title>
<path fill="none" stroke="black" d="M171,-455.7C171,-447.98 171,-438.71 171,-430.11"/>
<polygon fill="black" stroke="black" points="174.5,-430.1 171,-420.1 167.5,-430.1 174.5,-430.1"/>
</g>
<!-- rela0 -->
<g id="node8" class="node">
<title>rela0</title>
<ellipse fill="#33cc33" stroke="black" cx="88" cy="-402" rx="27" ry="18"/>
</g>
<!-- main2&#45;&gt;rela0 -->
<g id="edge13" class="edge">
<title>main2&#45;&gt;rela0</title>
<path fill="none" stroke="black" d="M154.6,-459.17C142.36,-448.85 125.45,-434.58 111.73,-423.01"/>
<polygon fill="black" stroke="black" points="113.98,-420.33 104.08,-416.56 109.47,-425.69 113.98,-420.33"/>
</g>
<!-- main4 -->
<g id="node4" class="node">
<title>main4</title>
<ellipse fill="#eecc33" stroke="black" cx="171" cy="-330" rx="27" ry="18"/>
</g>
<!-- main3&#45;&gt;main4 -->
<g id="edge3" class="edge">
<title>main3&#45;&gt;main4</title>
<path fill="none" stroke="black" d="M171,-383.7C171,-375.98 171,-366.71 171,-358.11"/>
<polygon fill="black" stroke="black" points="174.5,-358.1 171,-348.1 167.5,-358.1 174.5,-358.1"/>
</g>
<!-- main5 -->
<g id="node5" class="node">
<title>main5</title>
<ellipse fill="#eecc33" stroke="black" cx="169" cy="-258" rx="27" ry="18"/>
</g>
<!-- main4&#45;&gt;main5 -->
<g id="edge4" class="edge">
<title>main4&#45;&gt;main5</title>
<path fill="none" stroke="black" d="M170.51,-311.7C170.29,-303.98 170.02,-294.71 169.77,-286.11"/>
<polygon fill="black" stroke="black" points="173.27,-286 169.49,-276.1 166.28,-286.2 173.27,-286"/>
</g>
<!-- featb0 -->
<g id="node16" class="node">
<title>featb0</title>
<ellipse fill="#cc88dd" stroke="black" cx="253" cy="-258" rx="27" ry="18"/>
</g>
<!-- main4&#45;&gt;featb0 -->
<g id="edge15" class="edge">
<title>main4&#45;&gt;featb0</title>
<path fill="none" stroke="black" d="M187.2,-315.17C199.18,-304.94 215.69,-290.85 229.18,-279.34"/>
<polygon fill="black" stroke="black" points="231.78,-281.72 237.11,-272.56 227.23,-276.39 231.78,-281.72"/>
</g>
<!-- main6 -->
<g id="node6" class="node">
<title>main6</title>
<ellipse fill="#eecc33" stroke="black" cx="169" cy="-186" rx="27" ry="18"/>
</g>
<!-- main5&#45;&gt;main6 -->
<g id="edge5" class="edge">
<title>main5&#45;&gt;main6</title>
<path fill="none" stroke="black" d="M169,-239.7C169,-231.98 169,-222.71 169,-214.11"/>
<polygon fill="black" stroke="black" points="172.5,-214.1 169,-204.1 165.5,-214.1 172.5,-214.1"/>
</g>
<!-- main -->
<g id="node7" class="node">
<title>main</title>
<ellipse fill="#eecc33" stroke="black" cx="169" cy="-114" rx="27" ry="18"/>
<text text-anchor="middle" x="169" y="-111.5" font-family="Times,serif" font-size="10.00">main</text>
</g>
<!-- main6&#45;&gt;main -->
<g id="edge6" class="edge">
<title>main6&#45;&gt;main</title>
<path fill="none" stroke="black" d="M169,-167.7C169,-159.98 169,-150.71 169,-142.11"/>
<polygon fill="black" stroke="black" points="172.5,-142.1 169,-132.1 165.5,-142.1 172.5,-142.1"/>
</g>
<!-- relb0 -->
<g id="node10" class="node">
<title>relb0</title>
<ellipse fill="#33cc33" stroke="black" cx="88" cy="-114" rx="27" ry="18"/>
</g>
<!-- main6&#45;&gt;relb0 -->
<g id="edge17" class="edge">
<title>main6&#45;&gt;relb0</title>
<path fill="none" stroke="black" d="M153,-171.17C141.24,-161.01 125.06,-147.03 111.79,-135.56"/>
<polygon fill="black" stroke="black" points="113.82,-132.69 103.97,-128.8 109.25,-137.99 113.82,-132.69"/>
</g>
<!-- rela -->
<g id="node9" class="node">
<title>rela</title>
<polygon fill="#33cc33" stroke="black" points="118,-348 58,-348 58,-312 118,-312 118,-348"/>
<text text-anchor="middle" x="88" y="-327.5" font-family="Times,serif" font-size="10.00">release&#45;2.4</text>
</g>
<!-- rela0&#45;&gt;rela -->
<g id="edge7" class="edge">
<title>rela0&#45;&gt;rela</title>
<path fill="none" stroke="black" d="M88,-383.7C88,-375.98 88,-366.71 88,-358.11"/>
<polygon fill="black" stroke="black" points="91.5,-358.1 88,-348.1 84.5,-358.1 91.5,-358.1"/>
</g>
<!-- rela&#45;&gt;main5 -->
<g id="edge16" class="edge">
<title>rela&#45;&gt;main5</title>
<path fill="none" stroke="black" d="M108.02,-311.7C119.29,-301.96 133.43,-289.74 145.25,-279.52"/>
<polygon fill="black" stroke="black" points="147.73,-282.01 153,-272.82 143.15,-276.72 147.73,-282.01"/>
</g>
<!-- rela&#45;&gt;relb0 -->
<g id="edge22" class="edge">
<title>rela&#45;&gt;relb0</title>
<path fill="none" stroke="#b0b0b0" d="M88,-311.85C88,-271.78 88,-172.38 88,-132.23"/>
</g>
<!-- relb -->
<g id="node11" class="node">
<title>relb</title>
<ellipse fill="#33cc33" stroke="black" cx="88" cy="-42" rx="30.04" ry="18"/>
<text text-anchor="middle" x="88" y="-39.5" font-family="Times,serif" font-size="10.00">fixes&#45;2.5</text>
</g>
<!-- relb0&#45;&gt;relb -->
<g id="edge8" class="edge">
<title>relb0&#45;&gt;relb</title>
<path fill="none" stroke="black" d="M88,-95.7C88,-87.98 88,-78.71 88,-70.11"/>
<polygon fill="black" stroke="black" points="91.5,-70.1 88,-60.1 84.5,-70.1 91.5,-70.1"/>
</g>
<!-- feata1 -->
<g id="node13" class="node">
<title>feata1</title>
<ellipse fill="#cc88dd" stroke="black" cx="331" cy="-402" rx="27" ry="18"/>
</g>
<!-- feata0&#45;&gt;feata1 -->
<g id="edge9" class="edge">
<title>feata0&#45;&gt;feata1</title>
<path fill="none" stroke="black" d="M331,-455.7C331,-447.98 331,-438.71 331,-430.11"/>
<polygon fill="black" stroke="black" points="334.5,-430.1 331,-420.1 327.5,-430.1 334.5,-430.1"/>
</g>
<!-- feata2 -->
<g id="node14" class="node">
<title>feata2</title>
<ellipse fill="#cc88dd" stroke="black" cx="331" cy="-330" rx="27" ry="18"/>
</g>
<!-- feata1&#45;&gt;feata2 -->
<g id="edge10" class="edge">
<title>feata1&#45;&gt;feata2</title>
<path fill="none" stroke="black" d="M331,-383.7C331,-375.98 331,-366.71 331,-358.11"/>
<polygon fill="black" stroke="black" points="334.5,-358.1 331,-348.1 327.5,-358.1 334.5,-358.1"/>
</g>
<!-- feata3 -->
<g id="node15" class="node">
<title>feata3</title>
<ellipse fill="#cc88dd" stroke="black" cx="331" cy="-258" rx="27" ry="18"/>
</g>
<!-- feata2&#45;&gt;feata3 -->
<g id="edge11" class="edge">
<title>feata2&#45;&gt;feata3</title>
<path fill="none" stroke="black" d="M331,-311.7C331,-303.98 331,-294.71 331,-286.11"/>
<polygon fill="black" stroke="black" points="334.5,-286.1 331,-276.1 327.5,-286.1 334.5,-286.1"/>
</g>
<!-- featb1 -->
<g id="node17" class="node">
<title>featb1</title>
<ellipse fill="#cc88dd" stroke="black" cx="253" cy="-186" rx="27" ry="18"/>
</g>
<!-- featb0&#45;&gt;featb1 -->
<g id="edge12" class="edge">
<title>featb0&#45;&gt;featb1</title>
<path fill="none" stroke="black" d="M253,-239.7C253,-231.98 253,-222.71 253,-214.11"/>
<polygon fill="black" stroke="black" points="256.5,-214.1 253,-204.1 249.5,-214.1 256.5,-214.1"/>
</g>
<!-- main_root -->
<g id="node18" class="node">
<title>main_root</title>
<polygon fill="transparent" stroke="transparent" points="215,-636 129,-636 129,-600 215,-600 215,-636"/>
<text text-anchor="middle" x="172" y="-614.3" font-family="Times,serif" font-size="14.00">Main branch</text>
</g>
<!-- main_root&#45;&gt;main1 -->
<g id="edge20" class="edge">
<title>main_root&#45;&gt;main1</title>
<path fill="none" stroke="#b0b0b0" d="M172,-599.7C172,-588.85 172,-574.92 172,-564.1"/>
</g>
<!-- feat_root -->
<g id="node19" class="node">
<title>feat_root</title>
<polygon fill="transparent" stroke="transparent" points="347.5,-564 238.5,-564 238.5,-528 347.5,-528 347.5,-564"/>
<text text-anchor="middle" x="293" y="-542.3" font-family="Times,serif" font-size="14.00">Feature branches</text>
</g>
<!-- feat_root&#45;&gt;feata0 -->
<g id="edge18" class="edge">
<title>feat_root&#45;&gt;feata0</title>
<path fill="none" stroke="#b0b0b0" d="M302.39,-527.7C306.93,-519.35 312.45,-509.17 317.43,-500"/>
</g>
<!-- feat_root&#45;&gt;featb0 -->
<g id="edge19" class="edge">
<title>feat_root&#45;&gt;featb0</title>
<path fill="none" stroke="#b0b0b0" d="M290.62,-527.97C283.85,-479.56 264.47,-341.03 256.5,-284"/>
</g>
<!-- rel_root -->
<g id="node20" class="node">
<title>rel_root</title>
<polygon fill="transparent" stroke="transparent" points="126,-492 16,-492 16,-456 126,-456 126,-492"/>
<text text-anchor="middle" x="71" y="-470.3" font-family="Times,serif" font-size="14.00">Release branches</text>
</g>
<!-- rel_root&#45;&gt;rela0 -->
<g id="edge21" class="edge">
<title>rel_root&#45;&gt;rela0</title>
<path fill="none" stroke="#b0b0b0" d="M75.2,-455.7C77.84,-444.85 81.22,-430.92 83.85,-420.1"/>
</g>
</g>
</svg>
