<?xml version="1.0" encoding="UTF-8" standalone="no"?>
<!DOCTYPE svg PUBLIC "-//W3C//DTD SVG 1.1//EN"
 "http://www.w3.org/Graphics/SVG/1.1/DTD/svg11.dtd">
<!-- Generated by graphviz version 2.40.1 (20161225.0304)
 -->
<!-- Title: %3 Pages: 1 -->
<svg width="134pt" height="260pt"
 viewBox="0.00 0.00 134.00 260.00" xmlns="http://www.w3.org/2000/svg" xmlns:xlink="http://www.w3.org/1999/xlink">
<g id="graph0" class="graph" transform="scale(1 1) rotate(0) translate(4 256)">
<title>%3</title>
<polygon fill="transparent" stroke="transparent" points="-4,4 -4,-256 130,-256 130,4 -4,4"/>
<!-- Base -->
<g id="node1" class="node">
<title>Base</title>
<ellipse fill="#777777" stroke="#ffffff" cx="63" cy="-234" rx="27.0958" ry="18"/>
<text text-anchor="middle" x="63" y="-229.8" font-family="Times,serif" font-size="14.00" fill="#ffffff">Base</text>
</g>
<!-- A1 -->
<g id="node2" class="node">
<title>A1</title>
<ellipse fill="#bb7777" stroke="#ffffff" cx="27" cy="-162" rx="27" ry="18"/>
<text text-anchor="middle" x="27" y="-157.8" font-family="Times,serif" font-size="14.00" fill="#ffffff">A^</text>
</g>
<!-- Base&#45;&gt;A1 -->
<g id="edge1" class="edge">
<title>Base&#45;&gt;A1</title>
<path fill="none" stroke="#000000" d="M54.2854,-216.5708C50.0403,-208.0807 44.8464,-197.6929 40.1337,-188.2674"/>
<polygon fill="#000000" stroke="#000000" points="43.237,-186.6477 35.6343,-179.2687 36.976,-189.7782 43.237,-186.6477"/>
</g>
<!-- B1 -->
<g id="node4" class="node">
<title>B1</title>
<ellipse fill="#7777bb" stroke="#ffffff" cx="99" cy="-162" rx="27" ry="18"/>
<text text-anchor="middle" x="99" y="-157.8" font-family="Times,serif" font-size="14.00" fill="#ffffff">B^</text>
</g>
<!-- Base&#45;&gt;B1 -->
<g id="edge3" class="edge">
<title>Base&#45;&gt;B1</title>
<path fill="none" stroke="#000000" d="M71.7146,-216.5708C75.9597,-208.0807 81.1536,-197.6929 85.8663,-188.2674"/>
<polygon fill="#000000" stroke="#000000" points="89.024,-189.7782 90.3657,-179.2687 82.763,-186.6477 89.024,-189.7782"/>
</g>
<!-- A -->
<g id="node3" class="node">
<title>A</title>
<ellipse fill="#ff7777" stroke="#ffffff" cx="27" cy="-90" rx="27" ry="18"/>
<text text-anchor="middle" x="27" y="-85.8" font-family="Times,serif" font-size="14.00" fill="#ffffff">A</text>
</g>
<!-- A1&#45;&gt;A -->
<g id="edge2" class="edge">
<title>A1&#45;&gt;A</title>
<path fill="none" stroke="#000000" d="M27,-143.8314C27,-136.131 27,-126.9743 27,-118.4166"/>
<polygon fill="#000000" stroke="#000000" points="30.5001,-118.4132 27,-108.4133 23.5001,-118.4133 30.5001,-118.4132"/>
</g>
<!-- AB -->
<g id="node6" class="node">
<title>AB</title>
<ellipse fill="#ff77ff" stroke="#ffffff" cx="63" cy="-18" rx="31.1357" ry="18"/>
<text text-anchor="middle" x="63" y="-13.8" font-family="Times,serif" font-size="14.00" fill="#ffffff">A + B</text>
</g>
<!-- A&#45;&gt;AB -->
<g id="edge5" class="edge">
<title>A&#45;&gt;AB</title>
<path fill="none" stroke="#000000" d="M35.7146,-72.5708C39.9285,-64.1431 45.0772,-53.8455 49.7623,-44.4755"/>
<polygon fill="#000000" stroke="#000000" points="52.8992,-46.0278 54.2409,-35.5182 46.6382,-42.8973 52.8992,-46.0278"/>
</g>
<!-- B -->
<g id="node5" class="node">
<title>B</title>
<ellipse fill="#7777ff" stroke="#ffffff" cx="99" cy="-90" rx="27" ry="18"/>
<text text-anchor="middle" x="99" y="-85.8" font-family="Times,serif" font-size="14.00" fill="#ffffff">B</text>
</g>
<!-- B1&#45;&gt;B -->
<g id="edge4" class="edge">
<title>B1&#45;&gt;B</title>
<path fill="none" stroke="#000000" d="M99,-143.8314C99,-136.131 99,-126.9743 99,-118.4166"/>
<polygon fill="#000000" stroke="#000000" points="102.5001,-118.4132 99,-108.4133 95.5001,-118.4133 102.5001,-118.4132"/>
</g>
<!-- B&#45;&gt;AB -->
<g id="edge6" class="edge">
<title>B&#45;&gt;AB</title>
<path fill="none" stroke="#000000" d="M90.2854,-72.5708C86.0715,-64.1431 80.9228,-53.8455 76.2377,-44.4755"/>
<polygon fill="#000000" stroke="#000000" points="79.3618,-42.8973 71.7591,-35.5182 73.1008,-46.0278 79.3618,-42.8973"/>
</g>
</g>
</svg>
