<?xml version="1.0" encoding="UTF-8" standalone="no"?>
<!DOCTYPE svg PUBLIC "-//W3C//DTD SVG 1.1//EN"
 "http://www.w3.org/Graphics/SVG/1.1/DTD/svg11.dtd">
<!-- Generated by graphviz version 2.44.1 (20200629.0846)
 -->
<!-- Pages: 1 -->
<svg width="260pt" height="460pt"
 viewBox="0.00 0.00 260.00 460.00" xmlns="http://www.w3.org/2000/svg" xmlns:xlink="http://www.w3.org/1999/xlink">
<g id="graph0" class="graph" transform="scale(1 1) rotate(0) translate(4 456)">
<polygon fill="transparent" stroke="transparent" points="-4,4 -4,-456 256,-456 256,4 -4,4"/>
<g id="clust1" class="cluster">
<title>cluster_all</title>
<path fill="#dddddd" stroke="transparent" d="M20,-8C20,-8 232,-8 232,-8 238,-8 244,-14 244,-20 244,-20 244,-432 244,-432 244,-438 238,-444 232,-444 232,-444 20,-444 20,-444 14,-444 8,-438 8,-432 8,-432 8,-20 8,-20 8,-14 14,-8 20,-8"/>
</g>
<g id="clust2" class="cluster">
<title>cluster_main</title>
<path fill="#dddddd" stroke="transparent" d="M138,-16C138,-16 224,-16 224,-16 230,-16 236,-22 236,-28 236,-28 236,-424 236,-424 236,-430 230,-436 224,-436 224,-436 138,-436 138,-436 132,-436 126,-430 126,-424 126,-424 126,-28 126,-28 126,-22 132,-16 138,-16"/>
</g>
<g id="clust3" class="cluster">
<title>cluster_rela</title>
<path fill="#dddddd" stroke="transparent" d="M28,-237C28,-237 106,-237 106,-237 112,-237 118,-243 118,-249 118,-249 118,-352 118,-352 118,-358 112,-364 106,-364 106,-364 28,-364 28,-364 22,-364 16,-358 16,-352 16,-352 16,-249 16,-249 16,-243 22,-237 28,-237"/>
</g>
<!-- main2 -->
<g id="node1" class="node">
<title>main2</title>
<path fill="#eecc33" stroke="black" d="M176,-428C176,-428 146,-428 146,-428 140,-428 134,-422 134,-416 134,-416 134,-404 134,-404 134,-398 140,-392 146,-392 146,-392 176,-392 176,-392 182,-392 188,-398 188,-404 188,-404 188,-416 188,-416 188,-422 182,-428 176,-428"/>
</g>
<!-- main3 -->
<g id="node2" class="node">
<title>main3</title>
<path fill="#eecc33" stroke="black" d="M182,-355C182,-355 152,-355 152,-355 146,-355 140,-349 140,-343 140,-343 140,-331 140,-331 140,-325 146,-319 152,-319 152,-319 182,-319 182,-319 188,-319 194,-325 194,-331 194,-331 194,-343 194,-343 194,-349 188,-355 182,-355"/>
</g>
<!-- main2&#45;&gt;main3 -->
<g id="edge1" class="edge">
<title>main2&#45;&gt;main3</title>
<path fill="none" stroke="black" d="M162.45,-391.81C163.13,-383.79 163.95,-374.05 164.71,-365.07"/>
<polygon fill="black" stroke="black" points="168.21,-365.29 165.56,-355.03 161.23,-364.7 168.21,-365.29"/>
</g>
<!-- rela0 -->
<g id="node7" class="node">
<title>rela0</title>
<path fill="#33cc33" stroke="black" d="M98,-356C98,-356 36,-356 36,-356 30,-356 24,-350 24,-344 24,-344 24,-330 24,-330 24,-324 30,-318 36,-318 36,-318 98,-318 98,-318 104,-318 110,-324 110,-330 110,-330 110,-344 110,-344 110,-350 104,-356 98,-356"/>
<text text-anchor="middle" x="67" y="-340.8" font-family="Times,serif" font-size="14.00">work&#45;around</text>
<text text-anchor="middle" x="67" y="-325.8" font-family="Times,serif" font-size="14.00">for bug #1</text>
</g>
<!-- main2&#45;&gt;rela0 -->
<g id="edge7" class="edge">
<title>main2&#45;&gt;rela0</title>
<path fill="none" stroke="black" d="M138.25,-391.81C126.48,-382.93 111.92,-371.93 99.04,-362.2"/>
<polygon fill="black" stroke="black" points="100.95,-359.25 90.86,-356.02 96.73,-364.84 100.95,-359.25"/>
</g>
<!-- main4 -->
<g id="node3" class="node">
<title>main4</title>
<path fill="#eecc33" stroke="black" d="M201.5,-282C201.5,-282 146.5,-282 146.5,-282 140.5,-282 134.5,-276 134.5,-270 134.5,-270 134.5,-256 134.5,-256 134.5,-250 140.5,-244 146.5,-244 146.5,-244 201.5,-244 201.5,-244 207.5,-244 213.5,-250 213.5,-256 213.5,-256 213.5,-270 213.5,-270 213.5,-276 207.5,-282 201.5,-282"/>
<text text-anchor="middle" x="174" y="-266.8" font-family="Times,serif" font-size="14.00">cherry&#45;pick</text>
<text text-anchor="middle" x="174" y="-251.8" font-family="Times,serif" font-size="14.00">wa. bug #1</text>
</g>
<!-- main3&#45;&gt;main4 -->
<g id="edge2" class="edge">
<title>main3&#45;&gt;main4</title>
<path fill="none" stroke="black" d="M168.66,-318.94C169.43,-310.99 170.37,-301.31 171.25,-292.31"/>
<polygon fill="black" stroke="black" points="174.75,-292.49 172.23,-282.2 167.78,-291.81 174.75,-292.49"/>
</g>
<!-- main5 -->
<g id="node4" class="node">
<title>main5</title>
<path fill="#eecc33" stroke="black" d="M196,-208C196,-208 146,-208 146,-208 140,-208 134,-202 134,-196 134,-196 134,-182 134,-182 134,-176 140,-170 146,-170 146,-170 196,-170 196,-170 202,-170 208,-176 208,-182 208,-182 208,-196 208,-196 208,-202 202,-208 196,-208"/>
<text text-anchor="middle" x="171" y="-192.8" font-family="Times,serif" font-size="14.00">proper fix</text>
<text text-anchor="middle" x="171" y="-177.8" font-family="Times,serif" font-size="14.00">for bug #1</text>
</g>
<!-- main4&#45;&gt;main5 -->
<g id="edge3" class="edge">
<title>main4&#45;&gt;main5</title>
<path fill="none" stroke="black" d="M173.24,-243.83C172.92,-236.13 172.54,-226.97 172.18,-218.42"/>
<polygon fill="black" stroke="black" points="175.68,-218.26 171.77,-208.41 168.69,-218.55 175.68,-218.26"/>
</g>
<!-- main6 -->
<g id="node5" class="node">
<title>main6</title>
<path fill="#eecc33" stroke="black" d="M199.5,-134C199.5,-134 146.5,-134 146.5,-134 140.5,-134 134.5,-128 134.5,-122 134.5,-122 134.5,-108 134.5,-108 134.5,-102 140.5,-96 146.5,-96 146.5,-96 199.5,-96 199.5,-96 205.5,-96 211.5,-102 211.5,-108 211.5,-108 211.5,-122 211.5,-122 211.5,-128 205.5,-134 199.5,-134"/>
<text text-anchor="middle" x="173" y="-118.8" font-family="Times,serif" font-size="14.00">revert</text>
<text text-anchor="middle" x="173" y="-103.8" font-family="Times,serif" font-size="14.00">wa. bug #1</text>
</g>
<!-- main4&#45;&gt;main6 -->
<g id="edge11" class="edge">
<title>main4&#45;&gt;main6</title>
<path fill="none" stroke="#ff6666" stroke-dasharray="5,2" d="M193.5,-243.97C202.51,-234.29 212.26,-221.58 217,-208 222.57,-192.06 222.66,-185.91 217,-170 212.22,-156.56 202.49,-144.03 193.4,-134.44"/>
</g>
<!-- main5&#45;&gt;main6 -->
<g id="edge4" class="edge">
<title>main5&#45;&gt;main6</title>
<path fill="none" stroke="black" d="M171.5,-169.83C171.72,-162.13 171.97,-152.97 172.21,-144.42"/>
<polygon fill="black" stroke="black" points="175.71,-144.51 172.49,-134.41 168.71,-144.31 175.71,-144.51"/>
</g>
<!-- main7 -->
<g id="node6" class="node">
<title>main7</title>
<path fill="#eecc33" stroke="black" stroke-dasharray="5,2" d="M182,-60C182,-60 152,-60 152,-60 146,-60 140,-54 140,-48 140,-48 140,-36 140,-36 140,-30 146,-24 152,-24 152,-24 182,-24 182,-24 188,-24 194,-30 194,-36 194,-36 194,-48 194,-48 194,-54 188,-60 182,-60"/>
<text text-anchor="middle" x="167" y="-38.3" font-family="Times,serif" font-size="14.00">merge</text>
</g>
<!-- main6&#45;&gt;main7 -->
<g id="edge5" class="edge">
<title>main6&#45;&gt;main7</title>
<path fill="none" stroke="black" d="M171.45,-95.72C170.79,-87.89 170.01,-78.59 169.28,-69.99"/>
<polygon fill="black" stroke="black" points="172.77,-69.67 168.44,-60 165.79,-70.26 172.77,-69.67"/>
</g>
<!-- rela0&#45;&gt;main4 -->
<g id="edge10" class="edge">
<title>rela0&#45;&gt;main4</title>
<path fill="none" stroke="#22aa22" stroke-dasharray="5,2" d="M94,-317.83C110.22,-306.92 130.79,-293.08 147.01,-282.16"/>
</g>
<!-- rela -->
<g id="node8" class="node">
<title>rela</title>
<path fill="#33cc33" stroke="black" d="M94,-281C94,-281 46,-281 46,-281 40,-281 34,-275 34,-269 34,-269 34,-257 34,-257 34,-251 40,-245 46,-245 46,-245 94,-245 94,-245 100,-245 106,-251 106,-257 106,-257 106,-269 106,-269 106,-275 100,-281 94,-281"/>
<text text-anchor="middle" x="70" y="-259.3" font-family="Times,serif" font-size="14.00">fix bug #2</text>
</g>
<!-- rela0&#45;&gt;rela -->
<g id="edge6" class="edge">
<title>rela0&#45;&gt;rela</title>
<path fill="none" stroke="black" d="M67.76,-317.83C68.09,-309.89 68.48,-300.41 68.85,-291.63"/>
<polygon fill="black" stroke="black" points="72.35,-291.55 69.27,-281.42 65.36,-291.26 72.35,-291.55"/>
</g>
<!-- rela&#45;&gt;main7 -->
<g id="edge8" class="edge">
<title>rela&#45;&gt;main7</title>
<path fill="none" stroke="black" d="M73.8,-244.75C81.08,-213.7 98.71,-146.94 126,-96 131.19,-86.31 138.14,-76.55 144.84,-68.1"/>
<polygon fill="black" stroke="black" points="147.74,-70.08 151.38,-60.13 142.33,-65.64 147.74,-70.08"/>
</g>
<!-- rel_root -->
<!-- rel_root&#45;&gt;rela0 -->
</g>
</svg>
