<?xml version="1.0" encoding="UTF-8" standalone="no"?>
<!DOCTYPE svg PUBLIC "-//W3C//DTD SVG 1.1//EN"
 "http://www.w3.org/Graphics/SVG/1.1/DTD/svg11.dtd">
<!-- Generated by graphviz version 2.44.1 (20200629.0846)
 -->
<!-- Pages: 1 -->
<svg width="260pt" height="490pt"
 viewBox="0.00 0.00 260.00 490.00" xmlns="http://www.w3.org/2000/svg" xmlns:xlink="http://www.w3.org/1999/xlink">
<g id="graph0" class="graph" transform="scale(1 1) rotate(0) translate(4 486)">
<polygon fill="transparent" stroke="transparent" points="-4,4 -4,-486 256,-486 256,4 -4,4"/>
<g id="clust1" class="cluster">
<title>cluster_all</title>
<path fill="#dddddd" stroke="transparent" d="M20,-8C20,-8 232,-8 232,-8 238,-8 244,-14 244,-20 244,-20 244,-462 244,-462 244,-468 238,-474 232,-474 232,-474 20,-474 20,-474 14,-474 8,-468 8,-462 8,-462 8,-20 8,-20 8,-14 14,-8 20,-8"/>
<text text-anchor="middle" x="126" y="-458.8" font-family="Times,serif" font-size="14.00">An alternate merge</text>
<text text-anchor="middle" x="126" y="-443.8" font-family="Times,serif" font-size="14.00">where the revert wins</text>
</g>
<g id="clust2" class="cluster">
<title>cluster_main</title>
<path fill="#dddddd" stroke="transparent" d="M138,-80C138,-80 224,-80 224,-80 230,-80 236,-86 236,-92 236,-92 236,-416 236,-416 236,-422 230,-428 224,-428 224,-428 138,-428 138,-428 132,-428 126,-422 126,-416 126,-416 126,-92 126,-92 126,-86 132,-80 138,-80"/>
</g>
<g id="clust3" class="cluster">
<title>cluster_rela</title>
<path fill="#dddddd" stroke="transparent" d="M28,-229C28,-229 106,-229 106,-229 112,-229 118,-235 118,-241 118,-241 118,-344 118,-344 118,-350 112,-356 106,-356 106,-356 28,-356 28,-356 22,-356 16,-350 16,-344 16,-344 16,-241 16,-241 16,-235 22,-229 28,-229"/>
</g>
<!-- main2 -->
<g id="node1" class="node">
<title>main2</title>
<path fill="#eecc33" stroke="black" d="M176,-420C176,-420 146,-420 146,-420 140,-420 134,-414 134,-408 134,-408 134,-396 134,-396 134,-390 140,-384 146,-384 146,-384 176,-384 176,-384 182,-384 188,-390 188,-396 188,-396 188,-408 188,-408 188,-414 182,-420 176,-420"/>
</g>
<!-- main3 -->
<g id="node2" class="node">
<title>main3</title>
<path fill="#eecc33" stroke="black" d="M182,-347C182,-347 152,-347 152,-347 146,-347 140,-341 140,-335 140,-335 140,-323 140,-323 140,-317 146,-311 152,-311 152,-311 182,-311 182,-311 188,-311 194,-317 194,-323 194,-323 194,-335 194,-335 194,-341 188,-347 182,-347"/>
</g>
<!-- main2&#45;&gt;main3 -->
<g id="edge1" class="edge">
<title>main2&#45;&gt;main3</title>
<path fill="none" stroke="black" d="M162.45,-383.81C163.13,-375.79 163.95,-366.05 164.71,-357.07"/>
<polygon fill="black" stroke="black" points="168.21,-357.29 165.56,-347.03 161.23,-356.7 168.21,-357.29"/>
</g>
<!-- rela0 -->
<g id="node6" class="node">
<title>rela0</title>
<path fill="#33cc33" stroke="black" d="M98,-348C98,-348 36,-348 36,-348 30,-348 24,-342 24,-336 24,-336 24,-322 24,-322 24,-316 30,-310 36,-310 36,-310 98,-310 98,-310 104,-310 110,-316 110,-322 110,-322 110,-336 110,-336 110,-342 104,-348 98,-348"/>
<text text-anchor="middle" x="67" y="-332.8" font-family="Times,serif" font-size="14.00">work&#45;around</text>
<text text-anchor="middle" x="67" y="-317.8" font-family="Times,serif" font-size="14.00">for bug #1</text>
</g>
<!-- main2&#45;&gt;rela0 -->
<g id="edge7" class="edge">
<title>main2&#45;&gt;rela0</title>
<path fill="none" stroke="black" d="M138.25,-383.81C126.48,-374.93 111.92,-363.93 99.04,-354.2"/>
<polygon fill="black" stroke="black" points="100.95,-351.25 90.86,-348.02 96.73,-356.84 100.95,-351.25"/>
</g>
<!-- main4 -->
<g id="node3" class="node">
<title>main4</title>
<path fill="#eecc33" stroke="black" d="M201.5,-274C201.5,-274 146.5,-274 146.5,-274 140.5,-274 134.5,-268 134.5,-262 134.5,-262 134.5,-248 134.5,-248 134.5,-242 140.5,-236 146.5,-236 146.5,-236 201.5,-236 201.5,-236 207.5,-236 213.5,-242 213.5,-248 213.5,-248 213.5,-262 213.5,-262 213.5,-268 207.5,-274 201.5,-274"/>
<text text-anchor="middle" x="174" y="-258.8" font-family="Times,serif" font-size="14.00">cherry&#45;pick</text>
<text text-anchor="middle" x="174" y="-243.8" font-family="Times,serif" font-size="14.00">wa. bug #1</text>
</g>
<!-- main3&#45;&gt;main4 -->
<g id="edge2" class="edge">
<title>main3&#45;&gt;main4</title>
<path fill="none" stroke="black" d="M168.66,-310.94C169.43,-302.99 170.37,-293.31 171.25,-284.31"/>
<polygon fill="black" stroke="black" points="174.75,-284.49 172.23,-274.2 167.78,-283.81 174.75,-284.49"/>
</g>
<!-- main5 -->
<g id="node4" class="node">
<title>main5</title>
<path fill="#eecc33" stroke="black" d="M196,-200C196,-200 146,-200 146,-200 140,-200 134,-194 134,-188 134,-188 134,-174 134,-174 134,-168 140,-162 146,-162 146,-162 196,-162 196,-162 202,-162 208,-168 208,-174 208,-174 208,-188 208,-188 208,-194 202,-200 196,-200"/>
<text text-anchor="middle" x="171" y="-184.8" font-family="Times,serif" font-size="14.00">proper fix</text>
<text text-anchor="middle" x="171" y="-169.8" font-family="Times,serif" font-size="14.00">for bug #1</text>
</g>
<!-- main4&#45;&gt;main5 -->
<g id="edge3" class="edge">
<title>main4&#45;&gt;main5</title>
<path fill="none" stroke="black" d="M173.24,-235.83C172.92,-228.13 172.54,-218.97 172.18,-210.42"/>
<polygon fill="black" stroke="black" points="175.68,-210.26 171.77,-200.41 168.69,-210.55 175.68,-210.26"/>
</g>
<!-- main6 -->
<g id="node5" class="node">
<title>main6</title>
<path fill="#eecc33" stroke="black" d="M200.5,-126C200.5,-126 147.5,-126 147.5,-126 141.5,-126 135.5,-120 135.5,-114 135.5,-114 135.5,-100 135.5,-100 135.5,-94 141.5,-88 147.5,-88 147.5,-88 200.5,-88 200.5,-88 206.5,-88 212.5,-94 212.5,-100 212.5,-100 212.5,-114 212.5,-114 212.5,-120 206.5,-126 200.5,-126"/>
<text text-anchor="middle" x="174" y="-110.8" font-family="Times,serif" font-size="14.00">revert</text>
<text text-anchor="middle" x="174" y="-95.8" font-family="Times,serif" font-size="14.00">wa. bug #1</text>
</g>
<!-- main4&#45;&gt;main6 -->
<g id="edge13" class="edge">
<title>main4&#45;&gt;main6</title>
<path fill="none" stroke="#ff6666" stroke-dasharray="5,2" d="M193.5,-235.97C202.51,-226.29 212.26,-213.58 217,-200 222.57,-184.06 222.57,-177.94 217,-162 212.26,-148.42 202.51,-135.71 193.5,-126.03"/>
</g>
<!-- main5&#45;&gt;main6 -->
<g id="edge4" class="edge">
<title>main5&#45;&gt;main6</title>
<path fill="none" stroke="black" d="M171.76,-161.83C172.08,-154.13 172.46,-144.97 172.82,-136.42"/>
<polygon fill="black" stroke="black" points="176.31,-136.55 173.23,-126.41 169.32,-136.26 176.31,-136.55"/>
</g>
<!-- merge0 -->
<g id="node8" class="node">
<title>merge0</title>
<path fill="#eecc33" stroke="black" stroke-dasharray="5,2" d="M105,-125C105,-125 75,-125 75,-125 69,-125 63,-119 63,-113 63,-113 63,-101 63,-101 63,-95 69,-89 75,-89 75,-89 105,-89 105,-89 111,-89 117,-95 117,-101 117,-101 117,-113 117,-113 117,-119 111,-125 105,-125"/>
<text text-anchor="middle" x="90" y="-103.3" font-family="Times,serif" font-size="14.00">merge</text>
</g>
<!-- main5&#45;&gt;merge0 -->
<g id="edge9" class="edge">
<title>main5&#45;&gt;merge0</title>
<path fill="none" stroke="black" d="M150.56,-161.83C140.38,-152.78 127.93,-141.72 116.98,-131.98"/>
<polygon fill="black" stroke="black" points="119.12,-129.2 109.32,-125.17 114.47,-134.43 119.12,-129.2"/>
</g>
<!-- merge1 -->
<g id="node9" class="node">
<title>merge1</title>
<path fill="#eecc33" stroke="black" stroke-dasharray="5,2" d="M147,-52C147,-52 117,-52 117,-52 111,-52 105,-46 105,-40 105,-40 105,-28 105,-28 105,-22 111,-16 117,-16 117,-16 147,-16 147,-16 153,-16 159,-22 159,-28 159,-28 159,-40 159,-40 159,-46 153,-52 147,-52"/>
<text text-anchor="middle" x="132" y="-30.3" font-family="Times,serif" font-size="14.00">merge</text>
</g>
<!-- main6&#45;&gt;merge1 -->
<g id="edge10" class="edge">
<title>main6&#45;&gt;merge1</title>
<path fill="none" stroke="black" d="M163.18,-87.72C158.35,-79.54 152.56,-69.76 147.3,-60.86"/>
<polygon fill="black" stroke="black" points="150.16,-58.83 142.06,-52 144.14,-62.39 150.16,-58.83"/>
</g>
<!-- rela0&#45;&gt;main4 -->
<g id="edge12" class="edge">
<title>rela0&#45;&gt;main4</title>
<path fill="none" stroke="#22aa22" stroke-dasharray="5,2" d="M94,-309.83C110.22,-298.92 130.79,-285.08 147.01,-274.16"/>
</g>
<!-- rela -->
<g id="node7" class="node">
<title>rela</title>
<path fill="#33cc33" stroke="black" d="M94,-273C94,-273 46,-273 46,-273 40,-273 34,-267 34,-261 34,-261 34,-249 34,-249 34,-243 40,-237 46,-237 46,-237 94,-237 94,-237 100,-237 106,-243 106,-249 106,-249 106,-261 106,-261 106,-267 100,-273 94,-273"/>
<text text-anchor="middle" x="70" y="-251.3" font-family="Times,serif" font-size="14.00">fix bug #2</text>
</g>
<!-- rela0&#45;&gt;rela -->
<g id="edge5" class="edge">
<title>rela0&#45;&gt;rela</title>
<path fill="none" stroke="black" d="M67.76,-309.83C68.09,-301.89 68.48,-292.41 68.85,-283.63"/>
<polygon fill="black" stroke="black" points="72.35,-283.55 69.27,-273.42 65.36,-283.26 72.35,-283.55"/>
</g>
<!-- rela&#45;&gt;merge0 -->
<g id="edge8" class="edge">
<title>rela&#45;&gt;merge0</title>
<path fill="none" stroke="black" d="M72.33,-236.97C75.75,-212.04 82.14,-165.37 86.23,-135.54"/>
<polygon fill="black" stroke="black" points="89.73,-135.76 87.62,-125.38 82.79,-134.81 89.73,-135.76"/>
</g>
<!-- merge0&#45;&gt;merge1 -->
<g id="edge6" class="edge">
<title>merge0&#45;&gt;merge1</title>
<path fill="none" stroke="black" d="M100.17,-88.81C105.12,-80.44 111.18,-70.2 116.68,-60.9"/>
<polygon fill="black" stroke="black" points="119.85,-62.42 121.93,-52.03 113.82,-58.85 119.85,-62.42"/>
</g>
<!-- rel_root -->
<!-- rel_root&#45;&gt;rela0 -->
</g>
</svg>
