<?xml version="1.0" encoding="UTF-8" standalone="no"?>
<!DOCTYPE svg PUBLIC "-//W3C//DTD SVG 1.1//EN"
 "http://www.w3.org/Graphics/SVG/1.1/DTD/svg11.dtd">
<!-- Generated by graphviz version 2.44.1 (20200629.0846)
 -->
<!-- Pages: 1 -->
<svg width="336pt" height="385pt"
 viewBox="0.00 0.00 336.00 385.00" xmlns="http://www.w3.org/2000/svg" xmlns:xlink="http://www.w3.org/1999/xlink">
<g id="graph0" class="graph" transform="scale(1 1) rotate(0) translate(4 381)">
<polygon fill="transparent" stroke="transparent" points="-4,4 -4,-381 332,-381 332,4 -4,4"/>
<g id="clust1" class="cluster">
<title>cluster_all</title>
<path fill="#dddddd" stroke="transparent" d="M20,-8C20,-8 308,-8 308,-8 314,-8 320,-14 320,-20 320,-20 320,-357 320,-357 320,-363 314,-369 308,-369 308,-369 20,-369 20,-369 14,-369 8,-363 8,-357 8,-357 8,-20 8,-20 8,-14 14,-8 20,-8"/>
<text text-anchor="middle" x="164" y="-353" font-family="Times,serif" font-size="15.00">The RLGL State Machine</text>
</g>
<g id="clust2" class="cluster">
<title>cluster_freeze</title>
<path fill="#ddbbbb" stroke="transparent" d="M28,-16C28,-16 228,-16 228,-16 234,-16 240,-22 240,-28 240,-28 240,-261 240,-261 240,-267 234,-273 228,-273 228,-273 28,-273 28,-273 22,-273 16,-267 16,-261 16,-261 16,-28 16,-28 16,-22 22,-16 28,-16"/>
<text text-anchor="middle" x="128" y="-257" font-family="Times,serif" font-size="15.00">Feature Freeze</text>
</g>
<!-- dev -->
<g id="node1" class="node">
<title>dev</title>
<path fill="#77dd66" stroke="black" d="M248,-336C248,-336 96,-336 96,-336 90,-336 84,-330 84,-324 84,-324 84,-312 84,-312 84,-306 90,-300 96,-300 96,-300 248,-300 248,-300 254,-300 260,-306 260,-312 260,-312 260,-324 260,-324 260,-330 254,-336 248,-336"/>
<text text-anchor="middle" x="172" y="-321.6" font-family="Times,serif" font-size="13.00">New Feature Development.</text>
<text text-anchor="middle" x="172" y="-307.6" font-family="Times,serif" font-size="13.00">Bugs probably introduced too</text>
</g>
<!-- candidate -->
<g id="node3" class="node">
<title>candidate</title>
<path fill="#dd7766" stroke="black" d="M196.5,-240C196.5,-240 147.5,-240 147.5,-240 141.5,-240 135.5,-234 135.5,-228 135.5,-228 135.5,-216 135.5,-216 135.5,-210 141.5,-204 147.5,-204 147.5,-204 196.5,-204 196.5,-204 202.5,-204 208.5,-210 208.5,-216 208.5,-216 208.5,-228 208.5,-228 208.5,-234 202.5,-240 196.5,-240"/>
<text text-anchor="middle" x="172" y="-218.6" font-family="Times,serif" font-size="13.00">Create RC</text>
</g>
<!-- dev&#45;&gt;candidate -->
<g id="edge1" class="edge">
<title>dev&#45;&gt;candidate</title>
<path fill="none" stroke="black" d="M172,-299.76C172,-294.85 172,-289.2 172,-283.24"/>
<polygon fill="black" stroke="black" points="175.5,-283 172,-273 168.5,-283 175.5,-283"/>
</g>
<!-- release -->
<g id="node2" class="node">
<title>release</title>
<path fill="#77dd66" stroke="black" d="M299.5,-60C299.5,-60 260.5,-60 260.5,-60 254.5,-60 248.5,-54 248.5,-48 248.5,-48 248.5,-36 248.5,-36 248.5,-30 254.5,-24 260.5,-24 260.5,-24 299.5,-24 299.5,-24 305.5,-24 311.5,-30 311.5,-36 311.5,-36 311.5,-48 311.5,-48 311.5,-54 305.5,-60 299.5,-60"/>
<text text-anchor="middle" x="280" y="-38.6" font-family="Times,serif" font-size="13.00">Release!</text>
</g>
<!-- release&#45;&gt;dev -->
<g id="edge6" class="edge">
<title>release&#45;&gt;dev</title>
<path fill="none" stroke="black" d="M281.9,-60.02C285.52,-100.64 289.45,-204.94 244,-273 238.33,-281.5 230.4,-288.63 221.87,-294.51"/>
<polygon fill="black" stroke="black" points="219.79,-291.69 213.2,-299.98 223.52,-297.61 219.79,-291.69"/>
</g>
<!-- test -->
<g id="node5" class="node">
<title>test</title>
<path fill="#dd7766" stroke="black" d="M220,-155C220,-155 190,-155 190,-155 184,-155 178,-149 178,-143 178,-143 178,-131 178,-131 178,-125 184,-119 190,-119 190,-119 220,-119 220,-119 226,-119 232,-125 232,-131 232,-131 232,-143 232,-143 232,-149 226,-155 220,-155"/>
<text text-anchor="middle" x="205" y="-133.6" font-family="Times,serif" font-size="13.00">Test</text>
</g>
<!-- candidate&#45;&gt;test -->
<g id="edge2" class="edge">
<title>candidate&#45;&gt;test</title>
<path fill="none" stroke="black" d="M178.84,-203.8C183.35,-192.45 189.35,-177.35 194.47,-164.48"/>
<polygon fill="black" stroke="black" points="197.73,-165.76 198.17,-155.18 191.22,-163.17 197.73,-165.76"/>
</g>
<!-- fix -->
<g id="node4" class="node">
<title>fix</title>
<path fill="#dd7766" stroke="black" d="M195.5,-60C195.5,-60 154.5,-60 154.5,-60 148.5,-60 142.5,-54 142.5,-48 142.5,-48 142.5,-36 142.5,-36 142.5,-30 148.5,-24 154.5,-24 154.5,-24 195.5,-24 195.5,-24 201.5,-24 207.5,-30 207.5,-36 207.5,-36 207.5,-48 207.5,-48 207.5,-54 201.5,-60 195.5,-60"/>
<text text-anchor="middle" x="175" y="-38.6" font-family="Times,serif" font-size="13.00">Fix Bugs</text>
</g>
<!-- fix&#45;&gt;candidate -->
<g id="edge4" class="edge">
<title>fix&#45;&gt;candidate</title>
<path fill="none" stroke="black" d="M172.96,-60.08C171.53,-72.96 169.75,-91.06 169,-107 167.75,-133.64 168.26,-140.34 169,-167 169.24,-175.71 169.7,-185.2 170.19,-193.77"/>
<polygon fill="black" stroke="black" points="166.71,-194.22 170.81,-203.99 173.7,-193.79 166.71,-194.22"/>
</g>
<!-- test&#45;&gt;release -->
<g id="edge5" class="edge">
<title>test&#45;&gt;release</title>
<path fill="none" stroke="black" d="M216,-118.99C223.9,-107.15 235.05,-91.19 246,-78 248.88,-74.53 252.03,-71 255.21,-67.57"/>
<polygon fill="black" stroke="black" points="257.77,-69.96 262.15,-60.31 252.71,-65.12 257.77,-69.96"/>
<text text-anchor="middle" x="258" y="-81" font-family="Times,serif" font-size="10.00">Good</text>
</g>
<!-- test&#45;&gt;fix -->
<g id="edge3" class="edge">
<title>test&#45;&gt;fix</title>
<path fill="none" stroke="black" d="M195.5,-118.59C191.12,-109.92 186.19,-99.14 183,-89 181.13,-83.06 179.66,-76.53 178.52,-70.32"/>
<polygon fill="black" stroke="black" points="181.95,-69.61 176.9,-60.3 175.04,-70.73 181.95,-69.61"/>
<text text-anchor="middle" x="191.5" y="-81" font-family="Times,serif" font-size="10.00">Bad</text>
</g>
<!-- feature_branch -->
<g id="node6" class="node">
<title>feature_branch</title>
<path fill="#cc88dd" stroke="transparent" d="M128,-167C128,-167 36,-167 36,-167 30,-167 24,-161 24,-155 24,-155 24,-119 24,-119 24,-113 30,-107 36,-107 36,-107 128,-107 128,-107 134,-107 140,-113 140,-119 140,-119 140,-155 140,-155 140,-161 134,-167 128,-167"/>
<text text-anchor="middle" x="82" y="-153.4" font-family="Times,serif" font-size="12.00">Feature development</text>
<text text-anchor="middle" x="82" y="-140.4" font-family="Times,serif" font-size="12.00">continues only in</text>
<text text-anchor="middle" x="82" y="-127.4" font-family="Times,serif" font-size="12.00">feature branches</text>
<text text-anchor="middle" x="82" y="-114.4" font-family="Times,serif" font-size="12.00">(not merged to main)</text>
</g>
</g>
</svg>
