<?xml version="1.0" encoding="UTF-8" standalone="no"?>
<!DOCTYPE svg PUBLIC "-//W3C//DTD SVG 1.1//EN"
 "http://www.w3.org/Graphics/SVG/1.1/DTD/svg11.dtd">
<!-- Generated by graphviz version 8.1.0 (20230707.0739)
 -->
<!-- Pages: 1 -->
<svg width="300pt" height="539pt"
 viewBox="0.00 0.00 300.00 539.00" xmlns="http://www.w3.org/2000/svg" xmlns:xlink="http://www.w3.org/1999/xlink">
<g id="graph0" class="graph" transform="scale(1 1) rotate(0) translate(4 535)">
<polygon fill="none" stroke="none" points="-4,4 -4,-535 296,-535 296,4 -4,4"/>
<g id="clust1" class="cluster">
<title>cluster_all</title>
<path fill="#dddddd" stroke="none" d="M20,-8C20,-8 272,-8 272,-8 278,-8 284,-14 284,-20 284,-20 284,-511 284,-511 284,-517 278,-523 272,-523 272,-523 20,-523 20,-523 14,-523 8,-517 8,-511 8,-511 8,-20 8,-20 8,-14 14,-8 20,-8"/>
</g>
<g id="clust2" class="cluster">
<title>cluster_mirror</title>
<path fill="#dddddd" stroke="none" d="M28,-16C28,-16 108,-16 108,-16 114,-16 120,-22 120,-28 120,-28 120,-359 120,-359 120,-365 114,-371 108,-371 108,-371 28,-371 28,-371 22,-371 16,-365 16,-359 16,-359 16,-28 16,-28 16,-22 22,-16 28,-16"/>
</g>
<g id="clust3" class="cluster">
<title>cluster_dep_lost</title>
<path fill="#dddddd" stroke="none" d="M140,-165C140,-165 186,-165 186,-165 192,-165 198,-171 198,-177 198,-177 198,-359 198,-359 198,-365 192,-371 186,-371 186,-371 140,-371 140,-371 134,-371 128,-365 128,-359 128,-359 128,-177 128,-177 128,-171 134,-165 140,-165"/>
</g>
<g id="clust4" class="cluster">
<title>cluster_dep_main</title>
<path fill="#dddddd" stroke="none" d="M218,-88C218,-88 264,-88 264,-88 270,-88 276,-94 276,-100 276,-100 276,-503 276,-503 276,-509 270,-515 264,-515 264,-515 218,-515 218,-515 212,-515 206,-509 206,-503 206,-503 206,-100 206,-100 206,-94 212,-88 218,-88"/>
</g>
<!-- tool -->
<g id="node1" class="node">
<title>tool</title>
<path fill="#8888ee" stroke="black" d="M100,-363C100,-363 36,-363 36,-363 30,-363 24,-357 24,-351 24,-351 24,-334 24,-334 24,-328 30,-322 36,-322 36,-322 100,-322 100,-322 106,-322 112,-328 112,-334 112,-334 112,-351 112,-351 112,-357 106,-363 100,-363"/>
<text text-anchor="middle" x="68" y="-345.7" font-family="Times,serif" font-size="14.00">fork</text>
<text text-anchor="middle" x="68" y="-329.2" font-family="Times,serif" font-size="14.00">safety&#45;mirror</text>
</g>
<!-- conf -->
<g id="node2" class="node">
<title>conf</title>
<path fill="#8888ee" stroke="black" d="M85.88,-286C85.88,-286 42.12,-286 42.12,-286 36.12,-286 30.12,-280 30.12,-274 30.12,-274 30.12,-262 30.12,-262 30.12,-256 36.12,-250 42.12,-250 42.12,-250 85.88,-250 85.88,-250 91.88,-250 97.88,-256 97.88,-262 97.88,-262 97.88,-274 97.88,-274 97.88,-280 91.88,-286 85.88,-286"/>
<text text-anchor="middle" x="64" y="-262.95" font-family="Times,serif" font-size="14.00">configure</text>
</g>
<!-- tool&#45;&gt;conf -->
<g id="edge1" class="edge">
<title>tool&#45;&gt;conf</title>
<path fill="none" stroke="black" d="M66.91,-321.69C66.49,-314.17 66.01,-305.44 65.56,-297.29"/>
<polygon fill="black" stroke="black" points="69,-297.11 64.96,-287.32 62.01,-297.5 69,-297.11"/>
</g>
<!-- merge0 -->
<g id="node3" class="node">
<title>merge0</title>
<path fill="#8888ee" stroke="black" d="M99.62,-211.5C99.62,-211.5 66.38,-211.5 66.38,-211.5 60.38,-211.5 54.38,-205.5 54.38,-199.5 54.38,-199.5 54.38,-187.5 54.38,-187.5 54.38,-181.5 60.38,-175.5 66.38,-175.5 66.38,-175.5 99.62,-175.5 99.62,-175.5 105.62,-175.5 111.62,-181.5 111.62,-187.5 111.62,-187.5 111.62,-199.5 111.62,-199.5 111.62,-205.5 105.62,-211.5 99.62,-211.5"/>
<text text-anchor="middle" x="83" y="-188.45" font-family="Times,serif" font-size="14.00">merge*</text>
</g>
<!-- conf&#45;&gt;merge0 -->
<g id="edge2" class="edge">
<title>conf&#45;&gt;merge0</title>
<path fill="none" stroke="black" d="M68.5,-249.82C70.68,-241.51 73.35,-231.34 75.8,-221.99"/>
<polygon fill="black" stroke="black" points="79.38,-223.12 78.53,-212.56 72.61,-221.34 79.38,-223.12"/>
</g>
<!-- merge1 -->
<g id="node4" class="node">
<title>merge1</title>
<path fill="#8888ee" stroke="black" d="M99.62,-134.5C99.62,-134.5 66.38,-134.5 66.38,-134.5 60.38,-134.5 54.38,-128.5 54.38,-122.5 54.38,-122.5 54.38,-110.5 54.38,-110.5 54.38,-104.5 60.38,-98.5 66.38,-98.5 66.38,-98.5 99.62,-98.5 99.62,-98.5 105.62,-98.5 111.62,-104.5 111.62,-110.5 111.62,-110.5 111.62,-122.5 111.62,-122.5 111.62,-128.5 105.62,-134.5 99.62,-134.5"/>
<text text-anchor="middle" x="83" y="-111.45" font-family="Times,serif" font-size="14.00">merge*</text>
</g>
<!-- merge0&#45;&gt;merge1 -->
<g id="edge3" class="edge">
<title>merge0&#45;&gt;merge1</title>
<path fill="none" stroke="black" d="M83,-175.1C83,-166.4 83,-155.63 83,-145.78"/>
<polygon fill="black" stroke="black" points="86.5,-145.8 83,-135.8 79.5,-145.8 86.5,-145.8"/>
</g>
<!-- merge2 -->
<g id="node5" class="node">
<title>merge2</title>
<path fill="#8888ee" stroke="black" d="M99.62,-60C99.62,-60 66.38,-60 66.38,-60 60.38,-60 54.38,-54 54.38,-48 54.38,-48 54.38,-36 54.38,-36 54.38,-30 60.38,-24 66.38,-24 66.38,-24 99.62,-24 99.62,-24 105.62,-24 111.62,-30 111.62,-36 111.62,-36 111.62,-48 111.62,-48 111.62,-54 105.62,-60 99.62,-60"/>
<text text-anchor="middle" x="83" y="-36.95" font-family="Times,serif" font-size="14.00">merge*</text>
</g>
<!-- merge1&#45;&gt;merge2 -->
<g id="edge4" class="edge">
<title>merge1&#45;&gt;merge2</title>
<path fill="none" stroke="black" d="M83,-98.32C83,-90.1 83,-80.06 83,-70.8"/>
<polygon fill="black" stroke="black" points="86.5,-71.06 83,-61.06 79.5,-71.06 86.5,-71.06"/>
</g>
<!-- dep2 -->
<g id="node6" class="node">
<title>dep2</title>
<path fill="#dd9944" stroke="black" d="M178,-363C178,-363 148,-363 148,-363 142,-363 136,-357 136,-351 136,-351 136,-334 136,-334 136,-328 142,-322 148,-322 148,-322 178,-322 178,-322 184,-322 190,-328 190,-334 190,-334 190,-351 190,-351 190,-357 184,-363 178,-363"/>
<text text-anchor="middle" x="163" y="-345.7" font-family="Times,serif" font-size="14.00">was</text>
<text text-anchor="middle" x="163" y="-329.2" font-family="Times,serif" font-size="14.00">main</text>
</g>
<!-- dep2&#45;&gt;merge0 -->
<g id="edge7" class="edge">
<title>dep2&#45;&gt;merge0</title>
<path fill="none" stroke="black" d="M149.2,-321.58C142.22,-311.18 133.81,-298.12 127,-286 115.11,-264.83 103.28,-239.96 94.88,-221.49"/>
<polygon fill="black" stroke="black" points="97.77,-220.38 90.48,-212.69 91.39,-223.25 97.77,-220.38"/>
</g>
<!-- dep4 -->
<g id="node7" class="node">
<title>dep4</title>
<path fill="#dd9944" stroke="black" d="M178,-286C178,-286 148,-286 148,-286 142,-286 136,-280 136,-274 136,-274 136,-262 136,-262 136,-256 142,-250 148,-250 148,-250 178,-250 178,-250 184,-250 190,-256 190,-262 190,-262 190,-274 190,-274 190,-280 184,-286 178,-286"/>
<text text-anchor="middle" x="163" y="-262.95" font-family="Times,serif" font-size="14.00">..</text>
</g>
<!-- dep2&#45;&gt;dep4 -->
<!-- dep5 -->
<g id="node8" class="node">
<title>dep5</title>
<path fill="#dd9944" stroke="black" d="M178,-214C178,-214 148,-214 148,-214 142,-214 136,-208 136,-202 136,-202 136,-185 136,-185 136,-179 142,-173 148,-173 148,-173 178,-173 178,-173 184,-173 190,-179 190,-185 190,-185 190,-202 190,-202 190,-208 184,-214 178,-214"/>
<text text-anchor="middle" x="163" y="-196.7" font-family="Times,serif" font-size="14.00">was</text>
<text text-anchor="middle" x="163" y="-180.2" font-family="Times,serif" font-size="14.00">main</text>
</g>
<!-- dep4&#45;&gt;dep5 -->
<g id="edge10" class="edge">
<title>dep4&#45;&gt;dep5</title>
<path fill="none" stroke="black" d="M163,-249.82C163,-242.51 163,-233.75 163,-225.38"/>
<polygon fill="black" stroke="black" points="166.5,-225.38 163,-215.38 159.5,-225.38 166.5,-225.38"/>
</g>
<!-- dep5&#45;&gt;merge1 -->
<g id="edge11" class="edge">
<title>dep5&#45;&gt;merge1</title>
<path fill="none" stroke="black" d="M141.98,-172.79C131.95,-163.39 119.84,-152.04 109.21,-142.07"/>
<polygon fill="black" stroke="black" points="112.12,-140.06 102.43,-135.78 107.33,-145.17 112.12,-140.06"/>
</g>
<!-- latest -->
<g id="node9" class="node">
<title>latest</title>
<path fill="#33cc33" stroke="black" d="M256.12,-137C256.12,-137 225.88,-137 225.88,-137 219.88,-137 213.88,-131 213.88,-125 213.88,-125 213.88,-108 213.88,-108 213.88,-102 219.88,-96 225.88,-96 225.88,-96 256.12,-96 256.12,-96 262.12,-96 268.12,-102 268.12,-108 268.12,-108 268.12,-125 268.12,-125 268.12,-131 262.12,-137 256.12,-137"/>
<text text-anchor="middle" x="241" y="-119.7" font-family="Times,serif" font-size="14.00">current</text>
<text text-anchor="middle" x="241" y="-103.2" font-family="Times,serif" font-size="14.00">main</text>
</g>
<!-- latest&#45;&gt;merge2 -->
<g id="edge15" class="edge">
<title>latest&#45;&gt;merge2</title>
<path fill="none" stroke="black" d="M213.48,-102.87C188.09,-91.22 150.14,-73.81 121.7,-60.76"/>
<polygon fill="black" stroke="black" points="123.63,-57.33 113.08,-56.34 120.71,-63.69 123.63,-57.33"/>
</g>
<!-- dep0 -->
<g id="node10" class="node">
<title>dep0</title>
<path fill="#33cc33" stroke="black" d="M256,-507C256,-507 226,-507 226,-507 220,-507 214,-501 214,-495 214,-495 214,-483 214,-483 214,-477 220,-471 226,-471 226,-471 256,-471 256,-471 262,-471 268,-477 268,-483 268,-483 268,-495 268,-495 268,-501 262,-507 256,-507"/>
<text text-anchor="middle" x="241" y="-483.95" font-family="Times,serif" font-size="14.00">..</text>
</g>
<!-- dep1 -->
<g id="node11" class="node">
<title>dep1</title>
<path fill="#33cc33" stroke="black" d="M256,-435C256,-435 226,-435 226,-435 220,-435 214,-429 214,-423 214,-423 214,-411 214,-411 214,-405 220,-399 226,-399 226,-399 256,-399 256,-399 262,-399 268,-405 268,-411 268,-411 268,-423 268,-423 268,-429 262,-435 256,-435"/>
<text text-anchor="middle" x="241" y="-411.95" font-family="Times,serif" font-size="14.00">..</text>
</g>
<!-- dep0&#45;&gt;dep1 -->
<g id="edge5" class="edge">
<title>dep0&#45;&gt;dep1</title>
<path fill="none" stroke="black" d="M241,-470.7C241,-463.24 241,-454.32 241,-445.97"/>
<polygon fill="black" stroke="black" points="244.5,-446.1 241,-436.1 237.5,-446.1 244.5,-446.1"/>
</g>
<!-- dep1&#45;&gt;dep2 -->
<g id="edge6" class="edge">
<title>dep1&#45;&gt;dep2</title>
<path fill="none" stroke="black" d="M222.52,-398.82C213.49,-390.43 202.41,-380.13 192.26,-370.7"/>
<polygon fill="black" stroke="black" points="195.1,-368.63 185.39,-364.38 190.33,-373.75 195.1,-368.63"/>
</g>
<!-- dep3 -->
<g id="node12" class="node">
<title>dep3</title>
<path fill="#33cc33" stroke="black" d="M256,-360.5C256,-360.5 226,-360.5 226,-360.5 220,-360.5 214,-354.5 214,-348.5 214,-348.5 214,-336.5 214,-336.5 214,-330.5 220,-324.5 226,-324.5 226,-324.5 256,-324.5 256,-324.5 262,-324.5 268,-330.5 268,-336.5 268,-336.5 268,-348.5 268,-348.5 268,-354.5 262,-360.5 256,-360.5"/>
<text text-anchor="middle" x="241" y="-337.45" font-family="Times,serif" font-size="14.00">..</text>
</g>
<!-- dep1&#45;&gt;dep3 -->
<g id="edge8" class="edge">
<title>dep1&#45;&gt;dep3</title>
<path fill="none" stroke="black" d="M241,-398.82C241,-390.6 241,-380.56 241,-371.3"/>
<polygon fill="black" stroke="black" points="244.5,-371.56 241,-361.56 237.5,-371.56 244.5,-371.56"/>
</g>
<!-- dep3&#45;&gt;dep4 -->
<g id="edge9" class="edge">
<title>dep3&#45;&gt;dep4</title>
<path fill="none" stroke="black" d="M222.52,-324.32C212.68,-315.18 200.41,-303.77 189.57,-293.7"/>
<polygon fill="black" stroke="black" points="192.33,-291.55 182.62,-287.31 187.56,-296.68 192.33,-291.55"/>
</g>
<!-- dep6 -->
<g id="node13" class="node">
<title>dep6</title>
<path fill="#33cc33" stroke="black" d="M256,-286C256,-286 226,-286 226,-286 220,-286 214,-280 214,-274 214,-274 214,-262 214,-262 214,-256 220,-250 226,-250 226,-250 256,-250 256,-250 262,-250 268,-256 268,-262 268,-262 268,-274 268,-274 268,-280 262,-286 256,-286"/>
<text text-anchor="middle" x="241" y="-262.95" font-family="Times,serif" font-size="14.00">..</text>
</g>
<!-- dep3&#45;&gt;dep6 -->
<g id="edge12" class="edge">
<title>dep3&#45;&gt;dep6</title>
<path fill="none" stroke="black" d="M241,-324.32C241,-316.1 241,-306.06 241,-296.8"/>
<polygon fill="black" stroke="black" points="244.5,-297.06 241,-287.06 237.5,-297.06 244.5,-297.06"/>
</g>
<!-- dep7 -->
<g id="node14" class="node">
<title>dep7</title>
<path fill="#33cc33" stroke="black" d="M256,-211.5C256,-211.5 226,-211.5 226,-211.5 220,-211.5 214,-205.5 214,-199.5 214,-199.5 214,-187.5 214,-187.5 214,-181.5 220,-175.5 226,-175.5 226,-175.5 256,-175.5 256,-175.5 262,-175.5 268,-181.5 268,-187.5 268,-187.5 268,-199.5 268,-199.5 268,-205.5 262,-211.5 256,-211.5"/>
<text text-anchor="middle" x="241" y="-188.45" font-family="Times,serif" font-size="14.00">..</text>
</g>
<!-- dep6&#45;&gt;dep7 -->
<g id="edge13" class="edge">
<title>dep6&#45;&gt;dep7</title>
<path fill="none" stroke="black" d="M241,-249.82C241,-241.6 241,-231.56 241,-222.3"/>
<polygon fill="black" stroke="black" points="244.5,-222.56 241,-212.56 237.5,-222.56 244.5,-222.56"/>
</g>
<!-- dep7&#45;&gt;latest -->
<g id="edge14" class="edge">
<title>dep7&#45;&gt;latest</title>
<path fill="none" stroke="black" d="M241,-175.1C241,-167.11 241,-157.37 241,-148.2"/>
<polygon fill="black" stroke="black" points="244.5,-148.45 241,-138.45 237.5,-148.45 244.5,-148.45"/>
</g>
</g>
</svg>
