<?xml version="1.0" encoding="UTF-8" standalone="no"?>
<!DOCTYPE svg PUBLIC "-//W3C//DTD SVG 1.1//EN"
 "http://www.w3.org/Graphics/SVG/1.1/DTD/svg11.dtd">
<!-- Generated by graphviz version 2.44.1 (20200629.0846)
 -->
<!-- Pages: 1 -->
<svg width="278pt" height="372pt"
 viewBox="0.00 0.00 278.00 372.00" xmlns="http://www.w3.org/2000/svg" xmlns:xlink="http://www.w3.org/1999/xlink">
<g id="graph0" class="graph" transform="scale(1 1) rotate(0) translate(4 368)">
<polygon fill="transparent" stroke="transparent" points="-4,4 -4,-368 274,-368 274,4 -4,4"/>
<g id="clust1" class="cluster">
<title>cluster_all</title>
<path fill="#dddddd" stroke="transparent" d="M20,-8C20,-8 250,-8 250,-8 256,-8 262,-14 262,-20 262,-20 262,-344 262,-344 262,-350 256,-356 250,-356 250,-356 20,-356 20,-356 14,-356 8,-350 8,-344 8,-344 8,-20 8,-20 8,-14 14,-8 20,-8"/>
</g>
<g id="clust2" class="cluster">
<title>cluster_a</title>
<path fill="#dddddd" stroke="transparent" d="M28,-160C28,-160 74,-160 74,-160 80,-160 86,-166 86,-172 86,-172 86,-272 86,-272 86,-278 80,-284 74,-284 74,-284 28,-284 28,-284 22,-284 16,-278 16,-272 16,-272 16,-172 16,-172 16,-166 22,-160 28,-160"/>
</g>
<g id="clust3" class="cluster">
<title>cluster_b</title>
<path fill="#dddddd" stroke="transparent" d="M196,-160C196,-160 242,-160 242,-160 248,-160 254,-166 254,-172 254,-172 254,-272 254,-272 254,-278 248,-284 242,-284 242,-284 196,-284 196,-284 190,-284 184,-278 184,-272 184,-272 184,-172 184,-172 184,-166 190,-160 196,-160"/>
</g>
<g id="clust4" class="cluster">
<title>cluster_merges</title>
<path fill="#dddddd" stroke="transparent" d="M106,-16C106,-16 164,-16 164,-16 170,-16 176,-22 176,-28 176,-28 176,-200 176,-200 176,-206 170,-212 164,-212 164,-212 106,-212 106,-212 100,-212 94,-206 94,-200 94,-200 94,-28 94,-28 94,-22 100,-16 106,-16"/>
</g>
<!-- Base -->
<g id="node1" class="node">
<title>Base</title>
<ellipse fill="#777777" stroke="transparent" cx="135" cy="-330" rx="27.9" ry="18"/>
<text text-anchor="middle" x="135" y="-326.3" font-family="Times,serif" font-size="14.00" fill="white">Base</text>
</g>
<!-- A1 -->
<g id="node2" class="node">
<title>A1</title>
<ellipse fill="#bb7777" stroke="transparent" cx="51" cy="-258" rx="27" ry="18"/>
<text text-anchor="middle" x="51" y="-254.3" font-family="Times,serif" font-size="14.00" fill="white">A^</text>
</g>
<!-- Base&#45;&gt;A1 -->
<g id="edge1" class="edge">
<title>Base&#45;&gt;A1</title>
<path fill="none" stroke="black" d="M118.4,-315.17C106.01,-304.85 88.9,-290.58 75.02,-279.01"/>
<polygon fill="black" stroke="black" points="77.2,-276.28 67.28,-272.56 72.72,-281.65 77.2,-276.28"/>
</g>
<!-- B1 -->
<g id="node4" class="node">
<title>B1</title>
<ellipse fill="#7777bb" stroke="transparent" cx="219" cy="-258" rx="27" ry="18"/>
<text text-anchor="middle" x="219" y="-254.3" font-family="Times,serif" font-size="14.00" fill="white">B^</text>
</g>
<!-- Base&#45;&gt;B1 -->
<g id="edge3" class="edge">
<title>Base&#45;&gt;B1</title>
<path fill="none" stroke="black" d="M151.6,-315.17C163.99,-304.85 181.1,-290.58 194.98,-279.01"/>
<polygon fill="black" stroke="black" points="197.28,-281.65 202.72,-272.56 192.8,-276.28 197.28,-281.65"/>
</g>
<!-- A -->
<g id="node3" class="node">
<title>A</title>
<ellipse fill="#ff7777" stroke="transparent" cx="51" cy="-186" rx="27" ry="18"/>
<text text-anchor="middle" x="51" y="-182.3" font-family="Times,serif" font-size="14.00" fill="white">A</text>
</g>
<!-- A1&#45;&gt;A -->
<g id="edge2" class="edge">
<title>A1&#45;&gt;A</title>
<path fill="none" stroke="black" d="M51,-239.7C51,-231.98 51,-222.71 51,-214.11"/>
<polygon fill="black" stroke="black" points="54.5,-214.1 51,-204.1 47.5,-214.1 54.5,-214.1"/>
</g>
<!-- A1B1 -->
<g id="node7" class="node">
<title>A1B1</title>
<polygon fill="#bb77bb" stroke="transparent" points="167.5,-204 102.5,-204 102.5,-168 167.5,-168 167.5,-204"/>
<text text-anchor="middle" x="135" y="-182.3" font-family="Times,serif" font-size="14.00" fill="white">A^ + B^</text>
</g>
<!-- A1&#45;&gt;A1B1 -->
<g id="edge5" class="edge">
<title>A1&#45;&gt;A1B1</title>
<path fill="none" stroke="black" d="M67.2,-243.5C78.33,-234.23 93.41,-221.66 106.53,-210.73"/>
<polygon fill="black" stroke="black" points="108.94,-213.27 114.38,-204.18 104.46,-207.89 108.94,-213.27"/>
</g>
<!-- AB1 -->
<g id="node8" class="node">
<title>AB1</title>
<polygon fill="#ff77bb" stroke="transparent" points="163.5,-132 106.5,-132 106.5,-96 163.5,-96 163.5,-132"/>
<text text-anchor="middle" x="135" y="-110.3" font-family="Times,serif" font-size="14.00" fill="white">A + B^</text>
</g>
<!-- A&#45;&gt;AB1 -->
<g id="edge7" class="edge">
<title>A&#45;&gt;AB1</title>
<path fill="none" stroke="black" d="M67.2,-171.5C78.33,-162.23 93.41,-149.66 106.53,-138.73"/>
<polygon fill="black" stroke="black" points="108.94,-141.27 114.38,-132.18 104.46,-135.89 108.94,-141.27"/>
</g>
<!-- B -->
<g id="node5" class="node">
<title>B</title>
<ellipse fill="#7777ff" stroke="transparent" cx="219" cy="-186" rx="27" ry="18"/>
<text text-anchor="middle" x="219" y="-182.3" font-family="Times,serif" font-size="14.00" fill="white">B</text>
</g>
<!-- B1&#45;&gt;B -->
<g id="edge4" class="edge">
<title>B1&#45;&gt;B</title>
<path fill="none" stroke="black" d="M219,-239.7C219,-231.98 219,-222.71 219,-214.11"/>
<polygon fill="black" stroke="black" points="222.5,-214.1 219,-204.1 215.5,-214.1 222.5,-214.1"/>
</g>
<!-- B1&#45;&gt;A1B1 -->
<g id="edge6" class="edge">
<title>B1&#45;&gt;A1B1</title>
<path fill="none" stroke="black" d="M202.8,-243.5C191.67,-234.23 176.59,-221.66 163.47,-210.73"/>
<polygon fill="black" stroke="black" points="165.54,-207.89 155.62,-204.18 161.06,-213.27 165.54,-207.89"/>
</g>
<!-- AB -->
<g id="node6" class="node">
<title>AB</title>
<ellipse fill="#ff77ff" stroke="transparent" cx="135" cy="-42" rx="32.49" ry="18"/>
<text text-anchor="middle" x="135" y="-38.3" font-family="Times,serif" font-size="14.00" fill="white">A + B</text>
</g>
<!-- B&#45;&gt;AB -->
<g id="edge10" class="edge">
<title>B&#45;&gt;AB</title>
<path fill="none" stroke="black" d="M211.38,-168.53C202.77,-150.37 187.99,-120.47 173,-96 167,-86.2 159.78,-75.83 153.25,-66.89"/>
<polygon fill="black" stroke="black" points="156.03,-64.77 147.27,-58.82 150.41,-68.94 156.03,-64.77"/>
</g>
<!-- A1B1&#45;&gt;AB1 -->
<g id="edge8" class="edge">
<title>A1B1&#45;&gt;AB1</title>
<path fill="none" stroke="black" d="M135,-167.7C135,-159.98 135,-150.71 135,-142.11"/>
<polygon fill="black" stroke="black" points="138.5,-142.1 135,-132.1 131.5,-142.1 138.5,-142.1"/>
</g>
<!-- AB1&#45;&gt;AB -->
<g id="edge9" class="edge">
<title>AB1&#45;&gt;AB</title>
<path fill="none" stroke="black" d="M135,-95.7C135,-87.98 135,-78.71 135,-70.11"/>
<polygon fill="black" stroke="black" points="138.5,-70.1 135,-60.1 131.5,-70.1 138.5,-70.1"/>
</g>
</g>
</svg>
