<?xml version="1.0" encoding="UTF-8" standalone="no"?>
<!DOCTYPE svg PUBLIC "-//W3C//DTD SVG 1.1//EN"
 "http://www.w3.org/Graphics/SVG/1.1/DTD/svg11.dtd">
<!-- Generated by graphviz version 2.44.1 (20200629.0846)
 -->
<!-- Pages: 1 -->
<svg width="478pt" height="298pt"
 viewBox="0.00 0.00 478.00 298.00" xmlns="http://www.w3.org/2000/svg" xmlns:xlink="http://www.w3.org/1999/xlink">
<g id="graph0" class="graph" transform="scale(1 1) rotate(0) translate(4 294)">
<polygon fill="transparent" stroke="transparent" points="-4,4 -4,-294 474,-294 474,4 -4,4"/>
<g id="clust1" class="cluster">
<title>cluster_all</title>
<path fill="#eeeeee" stroke="transparent" d="M19.7,-8C19.7,-8 450,-8 450,-8 456,-8 462,-14 462,-20 462,-20 462,-270 462,-270 462,-276 456,-282 450,-282 450,-282 19.7,-282 19.7,-282 13.7,-282 7.7,-276 7.7,-270 7.7,-270 7.7,-20 7.7,-20 7.7,-14 13.7,-8 19.7,-8"/>
<text text-anchor="middle" x="234.85" y="-266.8" font-family="Times,serif" font-size="14.00">Components of Model and UI code</text>
</g>
<g id="clust2" class="cluster">
<title>cluster_model</title>
<path fill="#dddddd" stroke="#999999" d="M28,-66C28,-66 187,-66 187,-66 193,-66 199,-72 199,-78 199,-78 199,-183 199,-183 199,-189 193,-195 187,-195 187,-195 28,-195 28,-195 22,-195 16,-189 16,-183 16,-183 16,-78 16,-78 16,-72 22,-66 28,-66"/>
<text text-anchor="middle" x="107.5" y="-179.8" font-family="Times,serif" font-size="14.00">Model Code</text>
</g>
<g id="clust3" class="cluster">
<title>cluster_ui_code</title>
<path fill="#dddddd" stroke="#999999" d="M239,-66C239,-66 341,-66 341,-66 347,-66 353,-72 353,-78 353,-78 353,-239 353,-239 353,-245 347,-251 341,-251 341,-251 239,-251 239,-251 233,-251 227,-245 227,-239 227,-239 227,-78 227,-78 227,-72 233,-66 239,-66"/>
<text text-anchor="middle" x="290" y="-235.8" font-family="Times,serif" font-size="14.00">User Interface Code</text>
</g>
<g id="clust4" class="cluster">
<title>cluster_caption</title>
<path fill="#eeeeee" stroke="transparent" d="M27.7,-16C27.7,-16 318.8,-16 318.8,-16 324.8,-16 330.8,-22 330.8,-28 330.8,-28 330.8,-46 330.8,-46 330.8,-52 324.8,-58 318.8,-58 318.8,-58 27.7,-58 27.7,-58 21.7,-58 15.7,-52 15.7,-46 15.7,-46 15.7,-28 15.7,-28 15.7,-22 21.7,-16 27.7,-16"/>
<text text-anchor="middle" x="173.25" y="-43.6" font-family="Times,serif" font-size="13.00" fill="#cc5555">(code that we no longer need to write is colored in pink)</text>
</g>
<!-- Data -->
<g id="node1" class="node">
<title>Data</title>
<path fill="#449944" stroke="transparent" d="M173,-164C173,-164 143,-164 143,-164 137,-164 131,-158 131,-152 131,-152 131,-140 131,-140 131,-134 137,-128 143,-128 143,-128 173,-128 173,-128 179,-128 185,-134 185,-140 185,-140 185,-152 185,-152 185,-158 179,-164 173,-164"/>
<text text-anchor="middle" x="158" y="-142.3" font-family="Times,serif" font-size="14.00" fill="white">Data</text>
</g>
<!-- Updates -->
<g id="node4" class="node">
<title>Updates</title>
<path fill="#aa5555" stroke="transparent" d="M317.5,-110C317.5,-110 262.5,-110 262.5,-110 256.5,-110 250.5,-104 250.5,-98 250.5,-98 250.5,-86 250.5,-86 250.5,-80 256.5,-74 262.5,-74 262.5,-74 317.5,-74 317.5,-74 323.5,-74 329.5,-80 329.5,-86 329.5,-86 329.5,-98 329.5,-98 329.5,-104 323.5,-110 317.5,-110"/>
<text text-anchor="middle" x="290" y="-88.3" font-family="Times,serif" font-size="14.00" fill="white">UI Updates</text>
</g>
<!-- Data&#45;&gt;Updates -->
<g id="edge7" class="edge">
<title>Data&#45;&gt;Updates</title>
<path fill="none" stroke="#882222" d="M185.31,-135.07C201.3,-128.43 222.21,-119.74 241.06,-111.91"/>
<polygon fill="#882222" stroke="#882222" points="242.51,-115.1 250.4,-108.03 239.82,-108.64 242.51,-115.1"/>
</g>
<!-- Initialization -->
<g id="node5" class="node">
<title>Initialization</title>
<path fill="#449944" stroke="transparent" d="M330,-164C330,-164 250,-164 250,-164 244,-164 238,-158 238,-152 238,-152 238,-140 238,-140 238,-134 244,-128 250,-128 250,-128 330,-128 330,-128 336,-128 342,-134 342,-140 342,-140 342,-152 342,-152 342,-158 336,-164 330,-164"/>
<text text-anchor="middle" x="290" y="-142.3" font-family="Times,serif" font-size="14.00" fill="white">UI Initialization</text>
</g>
<!-- Data&#45;&gt;Initialization -->
<g id="edge3" class="edge">
<title>Data&#45;&gt;Initialization</title>
<path fill="none" stroke="#006600" d="M185.31,-146C197.54,-146 212.66,-146 227.53,-146"/>
<polygon fill="#006600" stroke="#006600" points="227.74,-149.5 237.74,-146 227.74,-142.5 227.74,-149.5"/>
</g>
<!-- Listeners -->
<g id="node2" class="node">
<title>Listeners</title>
<path fill="#aa5555" stroke="transparent" d="M179,-110C179,-110 137,-110 137,-110 131,-110 125,-104 125,-98 125,-98 125,-86 125,-86 125,-80 131,-74 137,-74 137,-74 179,-74 179,-74 185,-74 191,-80 191,-86 191,-86 191,-98 191,-98 191,-104 185,-110 179,-110"/>
<text text-anchor="middle" x="158" y="-88.3" font-family="Times,serif" font-size="14.00" fill="white">Listeners</text>
</g>
<!-- Listeners&#45;&gt;Updates -->
<g id="edge8" class="edge">
<title>Listeners&#45;&gt;Updates</title>
<path fill="none" stroke="#882222" d="M191.13,-92C205.81,-92 223.53,-92 239.83,-92"/>
<polygon fill="#882222" stroke="#882222" points="240.29,-95.5 250.29,-92 240.29,-88.5 240.29,-95.5"/>
</g>
<!-- Setters -->
<g id="node3" class="node">
<title>Setters</title>
<path fill="#aa5555" stroke="transparent" d="M77,-164C77,-164 36,-164 36,-164 30,-164 24,-158 24,-152 24,-152 24,-138 24,-138 24,-132 30,-126 36,-126 36,-126 77,-126 77,-126 83,-126 89,-132 89,-138 89,-138 89,-152 89,-152 89,-158 83,-164 77,-164"/>
<text text-anchor="middle" x="56.5" y="-148.8" font-family="Times,serif" font-size="14.00" fill="white">Setter</text>
<text text-anchor="middle" x="56.5" y="-133.8" font-family="Times,serif" font-size="14.00" fill="white">Methods</text>
</g>
<!-- Setters&#45;&gt;Data -->
<g id="edge10" class="edge">
<title>Setters&#45;&gt;Data</title>
<path fill="none" stroke="#882222" d="M89.26,-145.32C99.22,-145.42 110.29,-145.53 120.55,-145.63"/>
<polygon fill="#882222" stroke="#882222" points="120.83,-149.14 130.87,-145.74 120.9,-142.14 120.83,-149.14"/>
</g>
<!-- Setters&#45;&gt;Listeners -->
<g id="edge11" class="edge">
<title>Setters&#45;&gt;Listeners</title>
<path fill="none" stroke="#882222" d="M89.26,-128.08C97.7,-123.59 106.94,-118.67 115.81,-113.94"/>
<polygon fill="#882222" stroke="#882222" points="117.68,-116.91 124.86,-109.12 114.39,-110.73 117.68,-116.91"/>
</g>
<!-- UI -->
<g id="node10" class="node">
<title>UI</title>
<path fill="#449944" stroke="transparent" d="M442,-145.5C442,-145.5 401,-145.5 401,-145.5 395,-145.5 389,-139.5 389,-133.5 389,-133.5 389,-104.5 389,-104.5 389,-98.5 395,-92.5 401,-92.5 401,-92.5 442,-92.5 442,-92.5 448,-92.5 454,-98.5 454,-104.5 454,-104.5 454,-133.5 454,-133.5 454,-139.5 448,-145.5 442,-145.5"/>
<text text-anchor="middle" x="421.5" y="-130.3" font-family="Times,serif" font-size="14.00" fill="white">User</text>
<text text-anchor="middle" x="421.5" y="-115.3" font-family="Times,serif" font-size="14.00" fill="white">Interface</text>
<text text-anchor="middle" x="421.5" y="-100.3" font-family="Times,serif" font-size="14.00" fill="white">Library</text>
</g>
<!-- Updates&#45;&gt;UI -->
<g id="edge12" class="edge">
<title>Updates&#45;&gt;UI</title>
<path fill="none" stroke="#882222" d="M329.5,-100.03C345.04,-103.27 363,-107.01 378.84,-110.31"/>
<polygon fill="#882222" stroke="#882222" points="378.39,-113.8 388.89,-112.41 379.82,-106.94 378.39,-113.8"/>
</g>
<!-- Initialization&#45;&gt;UI -->
<g id="edge5" class="edge">
<title>Initialization&#45;&gt;UI</title>
<path fill="none" stroke="#006600" d="M342.18,-135.33C354.32,-132.8 367.13,-130.13 378.79,-127.7"/>
<polygon fill="#006600" stroke="#006600" points="379.62,-131.1 388.69,-125.63 378.19,-124.25 379.62,-131.1"/>
</g>
<!-- Events -->
<g id="node6" class="node">
<title>Events</title>
<path fill="#449944" stroke="transparent" d="M310.5,-220C310.5,-220 269.5,-220 269.5,-220 263.5,-220 257.5,-214 257.5,-208 257.5,-208 257.5,-194 257.5,-194 257.5,-188 263.5,-182 269.5,-182 269.5,-182 310.5,-182 310.5,-182 316.5,-182 322.5,-188 322.5,-194 322.5,-194 322.5,-208 322.5,-208 322.5,-214 316.5,-220 310.5,-220"/>
<text text-anchor="middle" x="290" y="-204.8" font-family="Times,serif" font-size="14.00" fill="white">Event</text>
<text text-anchor="middle" x="290" y="-189.8" font-family="Times,serif" font-size="14.00" fill="white">Handlers</text>
</g>
<!-- Events&#45;&gt;Data -->
<g id="edge4" class="edge">
<title>Events&#45;&gt;Data</title>
<path fill="none" stroke="#006600" d="M257.22,-187.55C238.25,-179.53 214.12,-169.32 194.52,-161.03"/>
<polygon fill="#006600" stroke="#006600" points="195.88,-157.8 185.31,-157.13 193.15,-164.25 195.88,-157.8"/>
</g>
<!-- Events&#45;&gt;Setters -->
<g id="edge9" class="edge">
<title>Events&#45;&gt;Setters</title>
<path fill="none" stroke="#882222" d="M257.4,-197.73C224.02,-193.8 170.09,-186.02 125,-173 116.32,-170.49 107.25,-167.22 98.67,-163.79"/>
<polygon fill="#882222" stroke="#882222" points="99.83,-160.48 89.25,-159.89 97.15,-166.95 99.83,-160.48"/>
</g>
<!-- cap0 -->
<g id="node7" class="node">
<title>cap0</title>
<ellipse fill="transparent" stroke="transparent" cx="56.5" cy="-26" rx="1.8" ry="1.8"/>
</g>
<!-- cap1 -->
<g id="node8" class="node">
<title>cap1</title>
<ellipse fill="transparent" stroke="transparent" cx="158" cy="-26" rx="1.8" ry="1.8"/>
</g>
<!-- cap0&#45;&gt;cap1 -->
<!-- cap2 -->
<g id="node9" class="node">
<title>cap2</title>
<ellipse fill="transparent" stroke="transparent" cx="290" cy="-26" rx="1.8" ry="1.8"/>
</g>
<!-- cap1&#45;&gt;cap2 -->
<!-- cap2&#45;&gt;UI -->
<!-- UI&#45;&gt;Events -->
<g id="edge6" class="edge">
<title>UI&#45;&gt;Events</title>
<path fill="none" stroke="#006600" d="M390.45,-145.71C379.16,-155.01 365.93,-165.08 353,-173 346.49,-176.99 339.32,-180.74 332.23,-184.13"/>
<polygon fill="#006600" stroke="#006600" points="330.31,-181.16 322.69,-188.52 333.23,-187.52 330.31,-181.16"/>
</g>
</g>
</svg>
