<?xml version="1.0" encoding="UTF-8" standalone="no"?>
<!DOCTYPE svg PUBLIC "-//W3C//DTD SVG 1.1//EN"
 "http://www.w3.org/Graphics/SVG/1.1/DTD/svg11.dtd">
<!-- Generated by graphviz version 2.40.1 (20161225.0304)
 -->
<!-- Title: %3 Pages: 1 -->
<svg width="192pt" height="260pt"
 viewBox="0.00 0.00 191.53 260.00" xmlns="http://www.w3.org/2000/svg" xmlns:xlink="http://www.w3.org/1999/xlink">
<g id="graph0" class="graph" transform="scale(1 1) rotate(0) translate(4 256)">
<title>%3</title>
<polygon fill="transparent" stroke="transparent" points="-4,4 -4,-256 187.5325,-256 187.5325,4 -4,4"/>
<!-- Dec -->
<g id="node1" class="node">
<title>Dec</title>
<ellipse fill="#add8e6" stroke="#ffffff" cx="110.6599" cy="-234" rx="27" ry="18"/>
<text text-anchor="middle" x="110.6599" y="-229.8" font-family="Times,serif" font-size="14.00" fill="#000000">Dec</text>
</g>
<!-- Type -->
<g id="node2" class="node">
<title>Type</title>
<ellipse fill="#add8e6" stroke="#ffffff" cx="27.6599" cy="-90" rx="27.8207" ry="18"/>
<text text-anchor="middle" x="27.6599" y="-85.8" font-family="Times,serif" font-size="14.00" fill="#000000">Type</text>
</g>
<!-- Dec&#45;&gt;Type -->
<g id="edge1" class="edge">
<title>Dec&#45;&gt;Type</title>
<path fill="none" stroke="#000000" d="M98.8373,-217.2728C91.5725,-206.7545 82.238,-192.7975 74.6599,-180 62.3074,-159.14 49.6622,-134.7177 40.6039,-116.5812"/>
<polygon fill="#000000" stroke="#000000" points="43.5397,-114.6226 35.9652,-107.2146 37.2668,-117.7292 43.5397,-114.6226"/>
</g>
<!-- Exp -->
<g id="node3" class="node">
<title>Exp</title>
<ellipse fill="#add8e6" stroke="#ffffff" cx="110.6599" cy="-162" rx="27" ry="18"/>
<text text-anchor="middle" x="110.6599" y="-157.8" font-family="Times,serif" font-size="14.00" fill="#000000">Exp</text>
</g>
<!-- Dec&#45;&gt;Exp -->
<g id="edge2" class="edge">
<title>Dec&#45;&gt;Exp</title>
<path fill="none" stroke="#000000" d="M104.7442,-216.2022C103.9397,-208.1807 103.717,-198.5231 104.0761,-189.5957"/>
<polygon fill="#000000" stroke="#000000" points="107.5696,-189.8099 104.7649,-179.593 100.5861,-189.3289 107.5696,-189.8099"/>
</g>
<!-- Pat -->
<g id="node4" class="node">
<title>Pat</title>
<ellipse fill="#add8e6" stroke="#ffffff" cx="83.6599" cy="-18" rx="27" ry="18"/>
<text text-anchor="middle" x="83.6599" y="-13.8" font-family="Times,serif" font-size="14.00" fill="#000000">Pat</text>
</g>
<!-- Dec&#45;&gt;Pat -->
<g id="edge3" class="edge">
<title>Dec&#45;&gt;Pat</title>
<path fill="none" stroke="#000000" d="M125.6271,-218.6105C152.4978,-189.0395 203.539,-122.718 174.6599,-72 162.6297,-50.8723 138.7177,-37.1575 118.424,-28.8376"/>
<polygon fill="#000000" stroke="#000000" points="119.4111,-25.4683 108.8203,-25.1778 116.9184,-32.0094 119.4111,-25.4683"/>
</g>
<!-- Type&#45;&gt;Pat -->
<g id="edge11" class="edge">
<title>Type&#45;&gt;Pat</title>
<path fill="none" stroke="transparent" d="M35.3377,-72.5708C41.9602,-62.7541 51.4383,-50.4003 60.3335,-39.9306"/>
<polygon fill="transparent" stroke="transparent" points="63.0056,-42.192 66.9651,-32.3649 57.7415,-37.5779 63.0056,-42.192"/>
</g>
<!-- Exp&#45;&gt;Dec -->
<g id="edge4" class="edge">
<title>Exp&#45;&gt;Dec</title>
<path fill="none" stroke="#000000" d="M116.5549,-179.593C117.3693,-187.5865 117.6019,-197.2363 117.2527,-206.1759"/>
<polygon fill="#000000" stroke="#000000" points="113.7575,-205.9891 116.5756,-216.2022 120.7416,-206.4608 113.7575,-205.9891"/>
</g>
<!-- Exp&#45;&gt;Type -->
<g id="edge5" class="edge">
<title>Exp&#45;&gt;Type</title>
<path fill="none" stroke="#000000" d="M93.8636,-147.4297C81.9385,-137.0851 65.7346,-123.0286 52.3427,-111.4116"/>
<polygon fill="#000000" stroke="#000000" points="54.2786,-108.4575 44.4312,-104.5486 49.6916,-113.7453 54.2786,-108.4575"/>
</g>
<!-- Exp&#45;&gt;Pat -->
<g id="edge6" class="edge">
<title>Exp&#45;&gt;Pat</title>
<path fill="none" stroke="#000000" d="M107.2949,-144.0535C102.6869,-119.4774 94.3663,-75.1008 88.9282,-46.0974"/>
<polygon fill="#000000" stroke="#000000" points="92.3503,-45.3564 87.0673,-36.1727 85.4702,-46.6465 92.3503,-45.3564"/>
</g>
<!-- Stmt -->
<g id="node5" class="node">
<title>Stmt</title>
<ellipse fill="#add8e6" stroke="#ffffff" cx="138.6599" cy="-90" rx="27" ry="18"/>
<text text-anchor="middle" x="138.6599" y="-85.8" font-family="Times,serif" font-size="14.00" fill="#000000">Stmt</text>
</g>
<!-- Exp&#45;&gt;Stmt -->
<g id="edge7" class="edge">
<title>Exp&#45;&gt;Stmt</title>
<path fill="none" stroke="#000000" d="M111.7731,-143.8314C114.2601,-135.2978 118.0929,-124.9758 122.1837,-115.6624"/>
<polygon fill="#000000" stroke="#000000" points="125.431,-116.9806 126.4947,-106.4393 119.0895,-114.0165 125.431,-116.9806"/>
</g>
<!-- Pat&#45;&gt;Type -->
<g id="edge8" class="edge">
<title>Pat&#45;&gt;Type</title>
<path fill="none" stroke="#000000" d="M76.042,-35.3403C69.4599,-45.1074 60.0318,-57.4071 51.1602,-67.8645"/>
<polygon fill="#000000" stroke="#000000" points="48.4918,-65.5991 44.541,-75.4297 53.7599,-70.2085 48.4918,-65.5991"/>
</g>
<!-- Stmt&#45;&gt;Exp -->
<g id="edge9" class="edge">
<title>Stmt&#45;&gt;Exp</title>
<path fill="none" stroke="#000000" d="M137.5834,-108.0423C135.0932,-116.6152 131.2336,-127.0145 127.1144,-136.3867"/>
<polygon fill="#000000" stroke="#000000" points="123.8424,-135.1212 122.7743,-145.6621 130.1827,-138.088 123.8424,-135.1212"/>
</g>
<!-- Stmt&#45;&gt;Pat -->
<g id="edge10" class="edge">
<title>Stmt&#45;&gt;Pat</title>
<path fill="none" stroke="#000000" d="M126.1795,-73.6621C119.1474,-64.4564 110.2252,-52.7764 102.3716,-42.4953"/>
<polygon fill="#000000" stroke="#000000" points="104.9426,-40.0953 96.0909,-34.2733 99.3799,-44.3446 104.9426,-40.0953"/>
</g>
</g>
</svg>
