<?xml version="1.0" encoding="UTF-8" standalone="no"?>
<!DOCTYPE svg PUBLIC "-//W3C//DTD SVG 1.1//EN"
 "http://www.w3.org/Graphics/SVG/1.1/DTD/svg11.dtd">
<!-- Generated by graphviz version 2.44.1 (20200629.0846)
 -->
<!-- Pages: 1 -->
<svg width="847pt" height="152pt"
 viewBox="0.00 0.00 846.87 152.00" xmlns="http://www.w3.org/2000/svg" xmlns:xlink="http://www.w3.org/1999/xlink">
<g id="graph0" class="graph" transform="scale(1 1) rotate(0) translate(4 148)">
<polygon fill="transparent" stroke="transparent" points="-4,4 -4,-148 842.87,-148 842.87,4 -4,4"/>
<g id="clust1" class="cluster">
<title>cluster_all</title>
<path fill="#dddddd" stroke="transparent" d="M20,-8C20,-8 818.87,-8 818.87,-8 824.87,-8 830.87,-14 830.87,-20 830.87,-20 830.87,-124 830.87,-124 830.87,-130 824.87,-136 818.87,-136 818.87,-136 20,-136 20,-136 14,-136 8,-130 8,-124 8,-124 8,-20 8,-20 8,-14 14,-8 20,-8"/>
</g>
<g id="clust2" class="cluster">
<title>cluster_main</title>
<path fill="#dddddd" stroke="transparent" d="M28,-16C28,-16 810.87,-16 810.87,-16 816.87,-16 822.87,-22 822.87,-28 822.87,-28 822.87,-56 822.87,-56 822.87,-62 816.87,-68 810.87,-68 810.87,-68 28,-68 28,-68 22,-68 16,-62 16,-56 16,-56 16,-28 16,-28 16,-22 22,-16 28,-16"/>
</g>
<g id="clust3" class="cluster">
<title>cluster_rela</title>
<path fill="#dddddd" stroke="transparent" d="M118,-76C118,-76 354.87,-76 354.87,-76 360.87,-76 366.87,-82 366.87,-88 366.87,-88 366.87,-116 366.87,-116 366.87,-122 360.87,-128 354.87,-128 354.87,-128 118,-128 118,-128 112,-128 106,-122 106,-116 106,-116 106,-88 106,-88 106,-82 112,-76 118,-76"/>
</g>
<g id="clust4" class="cluster">
<title>cluster_relb</title>
<path fill="#dddddd" stroke="transparent" d="M578.87,-76C578.87,-76 720.87,-76 720.87,-76 726.87,-76 732.87,-82 732.87,-88 732.87,-88 732.87,-116 732.87,-116 732.87,-122 726.87,-128 720.87,-128 720.87,-128 578.87,-128 578.87,-128 572.87,-128 566.87,-122 566.87,-116 566.87,-116 566.87,-88 566.87,-88 566.87,-82 572.87,-76 578.87,-76"/>
</g>
<!-- main0 -->
<g id="node1" class="node">
<title>main0</title>
<ellipse fill="#eecc33" stroke="black" cx="51" cy="-42" rx="27" ry="18"/>
</g>
<!-- main1 -->
<g id="node2" class="node">
<title>main1</title>
<ellipse fill="#eecc33" stroke="black" cx="143.43" cy="-42" rx="27" ry="18"/>
</g>
<!-- main0&#45;&gt;main1 -->
<g id="edge1" class="edge">
<title>main0&#45;&gt;main1</title>
<path fill="none" stroke="black" d="M78.16,-42C86.87,-42 96.75,-42 106.1,-42"/>
<polygon fill="black" stroke="black" points="106.33,-45.5 116.33,-42 106.33,-38.5 106.33,-45.5"/>
</g>
<!-- rela0 -->
<g id="node10" class="node">
<title>rela0</title>
<ellipse fill="#33cc33" stroke="black" cx="143.43" cy="-102" rx="29.37" ry="18"/>
<text text-anchor="middle" x="143.43" y="-99.5" font-family="Times,serif" font-size="10.00">revert X</text>
</g>
<!-- main0&#45;&gt;rela0 -->
<g id="edge12" class="edge">
<title>main0&#45;&gt;rela0</title>
<path fill="none" stroke="black" d="M70.74,-54.43C83.33,-62.79 100.16,-73.95 114.35,-83.37"/>
<polygon fill="black" stroke="black" points="112.51,-86.35 122.78,-88.96 116.38,-80.52 112.51,-86.35"/>
</g>
<!-- main2 -->
<g id="node3" class="node">
<title>main2</title>
<ellipse fill="#eecc33" stroke="black" cx="238.87" cy="-42" rx="27" ry="18"/>
</g>
<!-- main1&#45;&gt;main2 -->
<g id="edge2" class="edge">
<title>main1&#45;&gt;main2</title>
<path fill="none" stroke="black" d="M170.46,-42C180.1,-42 191.21,-42 201.59,-42"/>
<polygon fill="black" stroke="black" points="201.66,-45.5 211.66,-42 201.66,-38.5 201.66,-45.5"/>
</g>
<!-- main3 -->
<g id="node4" class="node">
<title>main3</title>
<ellipse fill="#eecc33" stroke="black" cx="331.87" cy="-42" rx="27" ry="18"/>
</g>
<!-- main2&#45;&gt;main3 -->
<g id="edge3" class="edge">
<title>main2&#45;&gt;main3</title>
<path fill="none" stroke="black" d="M266.19,-42C275.05,-42 285.11,-42 294.6,-42"/>
<polygon fill="black" stroke="black" points="294.6,-45.5 304.6,-42 294.6,-38.5 294.6,-45.5"/>
</g>
<!-- main4 -->
<g id="node5" class="node">
<title>main4</title>
<ellipse fill="#eecc33" stroke="black" cx="421.87" cy="-42" rx="27" ry="18"/>
</g>
<!-- main3&#45;&gt;main4 -->
<g id="edge4" class="edge">
<title>main3&#45;&gt;main4</title>
<path fill="none" stroke="black" d="M359.27,-42C367.26,-42 376.18,-42 384.69,-42"/>
<polygon fill="black" stroke="black" points="384.79,-45.5 394.79,-42 384.79,-38.5 384.79,-45.5"/>
</g>
<!-- main5 -->
<g id="node6" class="node">
<title>main5</title>
<ellipse fill="#eecc33" stroke="black" cx="511.87" cy="-42" rx="27" ry="18"/>
</g>
<!-- main4&#45;&gt;main5 -->
<g id="edge5" class="edge">
<title>main4&#45;&gt;main5</title>
<path fill="none" stroke="black" d="M449.27,-42C457.26,-42 466.18,-42 474.69,-42"/>
<polygon fill="black" stroke="black" points="474.79,-45.5 484.79,-42 474.79,-38.5 474.79,-45.5"/>
</g>
<!-- main6 -->
<g id="node7" class="node">
<title>main6</title>
<ellipse fill="#eecc33" stroke="black" cx="601.87" cy="-42" rx="27" ry="18"/>
</g>
<!-- main5&#45;&gt;main6 -->
<g id="edge6" class="edge">
<title>main5&#45;&gt;main6</title>
<path fill="none" stroke="black" d="M539.27,-42C547.26,-42 556.18,-42 564.69,-42"/>
<polygon fill="black" stroke="black" points="564.79,-45.5 574.79,-42 564.79,-38.5 564.79,-45.5"/>
</g>
<!-- relb0 -->
<g id="node13" class="node">
<title>relb0</title>
<ellipse fill="#33cc33" stroke="black" cx="601.87" cy="-102" rx="27" ry="18"/>
</g>
<!-- main5&#45;&gt;relb0 -->
<g id="edge13" class="edge">
<title>main5&#45;&gt;relb0</title>
<path fill="none" stroke="black" d="M531.53,-54.72C543.78,-63.08 560,-74.14 573.68,-83.46"/>
<polygon fill="black" stroke="black" points="572,-86.55 582.23,-89.29 575.94,-80.77 572,-86.55"/>
</g>
<!-- main7 -->
<g id="node8" class="node">
<title>main7</title>
<ellipse fill="#eecc33" stroke="black" cx="694.87" cy="-42" rx="27" ry="18"/>
</g>
<!-- main6&#45;&gt;main7 -->
<g id="edge7" class="edge">
<title>main6&#45;&gt;main7</title>
<path fill="none" stroke="black" d="M629.19,-42C638.05,-42 648.11,-42 657.6,-42"/>
<polygon fill="black" stroke="black" points="657.6,-45.5 667.6,-42 657.6,-38.5 657.6,-45.5"/>
</g>
<!-- main -->
<g id="node9" class="node">
<title>main</title>
<ellipse fill="#eecc33" stroke="black" cx="787.87" cy="-42" rx="27" ry="18"/>
<text text-anchor="middle" x="787.87" y="-39.5" font-family="Times,serif" font-size="10.00">main</text>
</g>
<!-- main7&#45;&gt;main -->
<g id="edge8" class="edge">
<title>main7&#45;&gt;main</title>
<path fill="none" stroke="black" d="M722.19,-42C731.05,-42 741.11,-42 750.6,-42"/>
<polygon fill="black" stroke="black" points="750.6,-45.5 760.6,-42 750.6,-38.5 750.6,-45.5"/>
</g>
<!-- rela -->
<g id="node11" class="node">
<title>rela</title>
<polygon fill="#33cc33" stroke="black" points="268.87,-120 208.87,-120 208.87,-84 268.87,-84 268.87,-120"/>
<text text-anchor="middle" x="238.87" y="-99.5" font-family="Times,serif" font-size="10.00">release&#45;2.4</text>
</g>
<!-- rela0&#45;&gt;rela -->
<g id="edge9" class="edge">
<title>rela0&#45;&gt;rela</title>
<path fill="none" stroke="black" d="M172.97,-102C181.06,-102 190.01,-102 198.61,-102"/>
<polygon fill="black" stroke="black" points="198.86,-105.5 208.86,-102 198.86,-98.5 198.86,-105.5"/>
</g>
<!-- rela1 -->
<g id="node12" class="node">
<title>rela1</title>
<ellipse fill="#ff7777" stroke="black" cx="331.87" cy="-102" rx="27" ry="18"/>
<text text-anchor="middle" x="331.87" y="-99.5" font-family="Times,serif" font-size="10.00">pick X</text>
</g>
<!-- rela&#45;&gt;rela1 -->
<g id="edge10" class="edge">
<title>rela&#45;&gt;rela1</title>
<path fill="none" stroke="black" d="M268.91,-102C277.04,-102 285.99,-102 294.49,-102"/>
<polygon fill="black" stroke="black" points="294.56,-105.5 304.56,-102 294.56,-98.5 294.56,-105.5"/>
</g>
<!-- rela1&#45;&gt;main4 -->
<g id="edge14" class="edge">
<title>rela1&#45;&gt;main4</title>
<path fill="none" stroke="#cc5555" d="M351.53,-89.28C363.78,-80.92 380,-69.86 393.68,-60.54"/>
<polygon fill="#cc5555" stroke="#cc5555" points="395.94,-63.23 402.23,-54.71 392,-57.45 395.94,-63.23"/>
</g>
<!-- relb -->
<g id="node14" class="node">
<title>relb</title>
<polygon fill="#33cc33" stroke="black" points="724.87,-120 664.87,-120 664.87,-84 724.87,-84 724.87,-120"/>
<text text-anchor="middle" x="694.87" y="-99.5" font-family="Times,serif" font-size="10.00">release&#45;2.5</text>
</g>
<!-- relb0&#45;&gt;relb -->
<g id="edge11" class="edge">
<title>relb0&#45;&gt;relb</title>
<path fill="none" stroke="black" d="M629.19,-102C637.1,-102 645.96,-102 654.52,-102"/>
<polygon fill="black" stroke="black" points="654.73,-105.5 664.73,-102 654.73,-98.5 654.73,-105.5"/>
</g>
<!-- relb&#45;&gt;main -->
<g id="edge15" class="edge">
<title>relb&#45;&gt;main</title>
<path fill="none" stroke="#cc5555" d="M723.17,-84C734.68,-76.41 748.06,-67.59 759.57,-60"/>
<polygon fill="#cc5555" stroke="#cc5555" points="761.53,-62.9 767.95,-54.47 757.68,-57.05 761.53,-62.9"/>
</g>
</g>
</svg>
