<?xml version="1.0" encoding="UTF-8" standalone="no"?>
<!DOCTYPE svg PUBLIC "-//W3C//DTD SVG 1.1//EN"
 "http://www.w3.org/Graphics/SVG/1.1/DTD/svg11.dtd">
<!-- Generated by graphviz version 2.44.1 (20200629.0846)
 -->
<!-- Pages: 1 -->
<svg width="386pt" height="660pt"
 viewBox="0.00 0.00 386.00 660.00" xmlns="http://www.w3.org/2000/svg" xmlns:xlink="http://www.w3.org/1999/xlink">
<g id="graph0" class="graph" transform="scale(1 1) rotate(0) translate(4 656)">
<polygon fill="transparent" stroke="transparent" points="-4,4 -4,-656 382,-656 382,4 -4,4"/>
<g id="clust1" class="cluster">
<title>cluster_all</title>
<path fill="#dddddd" stroke="transparent" d="M20,-8C20,-8 358,-8 358,-8 364,-8 370,-14 370,-20 370,-20 370,-632 370,-632 370,-638 364,-644 358,-644 358,-644 20,-644 20,-644 14,-644 8,-638 8,-632 8,-632 8,-20 8,-20 8,-14 14,-8 20,-8"/>
</g>
<g id="clust2" class="cluster">
<title>cluster_main</title>
<path fill="#dddddd" stroke="transparent" d="M148,-88C148,-88 194,-88 194,-88 200,-88 206,-94 206,-100 206,-100 206,-560 206,-560 206,-566 200,-572 194,-572 194,-572 148,-572 148,-572 142,-572 136,-566 136,-560 136,-560 136,-100 136,-100 136,-94 142,-88 148,-88"/>
</g>
<g id="clust3" class="cluster">
<title>cluster_rela</title>
<path fill="#dddddd" stroke="transparent" d="M64,-304C64,-304 116,-304 116,-304 122,-304 128,-310 128,-316 128,-316 128,-416 128,-416 128,-422 122,-428 116,-428 116,-428 64,-428 64,-428 58,-428 52,-422 52,-416 52,-416 52,-316 52,-316 52,-310 58,-304 64,-304"/>
</g>
<g id="clust4" class="cluster">
<title>cluster_relb</title>
<path fill="#dddddd" stroke="transparent" d="M64,-16C64,-16 116,-16 116,-16 122,-16 128,-22 128,-28 128,-28 128,-128 128,-128 128,-134 122,-140 116,-140 116,-140 64,-140 64,-140 58,-140 52,-134 52,-128 52,-128 52,-28 52,-28 52,-22 58,-16 64,-16"/>
</g>
<g id="clust5" class="cluster">
<title>cluster_feata</title>
<polygon fill="#dddddd" stroke="black" stroke-dasharray="5,2" points="292,-232 292,-500 362,-500 362,-232 292,-232"/>
</g>
<g id="clust6" class="cluster">
<title>cluster_featb</title>
<polygon fill="#dddddd" stroke="black" stroke-dasharray="5,2" points="214,-160 214,-284 284,-284 284,-160 214,-160"/>
</g>
<!-- main1 -->
<g id="node1" class="node">
<title>main1</title>
<ellipse fill="#eecc33" stroke="black" cx="171" cy="-546" rx="27" ry="18"/>
</g>
<!-- main2 -->
<g id="node2" class="node">
<title>main2</title>
<ellipse fill="#eecc33" stroke="black" cx="171" cy="-474" rx="27" ry="18"/>
</g>
<!-- main1&#45;&gt;main2 -->
<g id="edge1" class="edge">
<title>main1&#45;&gt;main2</title>
<path fill="none" stroke="black" d="M171,-527.7C171,-519.98 171,-510.71 171,-502.11"/>
<polygon fill="black" stroke="black" points="174.5,-502.1 171,-492.1 167.5,-502.1 174.5,-502.1"/>
</g>
<!-- feata0 -->
<g id="node12" class="node">
<title>feata0</title>
<ellipse fill="#cc88dd" stroke="black" cx="327" cy="-474" rx="27" ry="18"/>
</g>
<!-- main1&#45;&gt;feata0 -->
<g id="edge14" class="edge">
<title>main1&#45;&gt;feata0</title>
<path fill="none" stroke="black" d="M190.86,-533.73C194.53,-531.75 198.35,-529.77 202,-528 232.9,-513.02 269.1,-497.93 294.57,-487.7"/>
<polygon fill="black" stroke="black" points="296.12,-490.86 304.11,-483.9 293.53,-484.35 296.12,-490.86"/>
</g>
<!-- main3 -->
<g id="node3" class="node">
<title>main3</title>
<ellipse fill="#eecc33" stroke="black" cx="171" cy="-402" rx="27" ry="18"/>
</g>
<!-- main2&#45;&gt;main3 -->
<g id="edge2" class="edge">
<title>main2&#45;&gt;main3</title>
<path fill="none" stroke="black" d="M171,-455.7C171,-447.98 171,-438.71 171,-430.11"/>
<polygon fill="black" stroke="black" points="174.5,-430.1 171,-420.1 167.5,-430.1 174.5,-430.1"/>
</g>
<!-- rela0 -->
<g id="node8" class="node">
<title>rela0</title>
<ellipse fill="#33cc33" stroke="black" cx="90" cy="-402" rx="27" ry="18"/>
</g>
<!-- main2&#45;&gt;rela0 -->
<g id="edge13" class="edge">
<title>main2&#45;&gt;rela0</title>
<path fill="none" stroke="black" d="M155,-459.17C143.24,-449.01 127.06,-435.03 113.79,-423.56"/>
<polygon fill="black" stroke="black" points="115.82,-420.69 105.97,-416.8 111.25,-425.99 115.82,-420.69"/>
</g>
<!-- main4 -->
<g id="node4" class="node">
<title>main4</title>
<ellipse fill="#eecc33" stroke="black" cx="171" cy="-330" rx="27" ry="18"/>
</g>
<!-- main3&#45;&gt;main4 -->
<g id="edge3" class="edge">
<title>main3&#45;&gt;main4</title>
<path fill="none" stroke="black" d="M171,-383.7C171,-375.98 171,-366.71 171,-358.11"/>
<polygon fill="black" stroke="black" points="174.5,-358.1 171,-348.1 167.5,-358.1 174.5,-358.1"/>
</g>
<!-- main5 -->
<g id="node5" class="node">
<title>main5</title>
<ellipse fill="#eecc33" stroke="black" cx="171" cy="-258" rx="27" ry="18"/>
</g>
<!-- main4&#45;&gt;main5 -->
<g id="edge4" class="edge">
<title>main4&#45;&gt;main5</title>
<path fill="none" stroke="black" d="M171,-311.7C171,-303.98 171,-294.71 171,-286.11"/>
<polygon fill="black" stroke="black" points="174.5,-286.1 171,-276.1 167.5,-286.1 174.5,-286.1"/>
</g>
<!-- featb0 -->
<g id="node16" class="node">
<title>featb0</title>
<ellipse fill="#cc88dd" stroke="black" cx="249" cy="-258" rx="27" ry="18"/>
</g>
<!-- main4&#45;&gt;featb0 -->
<g id="edge15" class="edge">
<title>main4&#45;&gt;featb0</title>
<path fill="none" stroke="black" d="M186.41,-315.17C197.73,-305.01 213.31,-291.03 226.09,-279.56"/>
<polygon fill="black" stroke="black" points="228.52,-282.09 233.62,-272.8 223.84,-276.88 228.52,-282.09"/>
</g>
<!-- main6 -->
<g id="node6" class="node">
<title>main6</title>
<ellipse fill="#eecc33" stroke="black" cx="171" cy="-186" rx="27" ry="18"/>
</g>
<!-- main5&#45;&gt;main6 -->
<g id="edge5" class="edge">
<title>main5&#45;&gt;main6</title>
<path fill="none" stroke="black" d="M171,-239.7C171,-231.98 171,-222.71 171,-214.11"/>
<polygon fill="black" stroke="black" points="174.5,-214.1 171,-204.1 167.5,-214.1 174.5,-214.1"/>
</g>
<!-- main -->
<g id="node7" class="node">
<title>main</title>
<ellipse fill="#eecc33" stroke="black" cx="171" cy="-114" rx="27" ry="18"/>
<text text-anchor="middle" x="171" y="-111.5" font-family="Times,serif" font-size="10.00">main</text>
</g>
<!-- main6&#45;&gt;main -->
<g id="edge6" class="edge">
<title>main6&#45;&gt;main</title>
<path fill="none" stroke="black" d="M171,-167.7C171,-159.98 171,-150.71 171,-142.11"/>
<polygon fill="black" stroke="black" points="174.5,-142.1 171,-132.1 167.5,-142.1 174.5,-142.1"/>
</g>
<!-- relb0 -->
<g id="node10" class="node">
<title>relb0</title>
<ellipse fill="#33cc33" stroke="black" cx="90" cy="-114" rx="27" ry="18"/>
</g>
<!-- main6&#45;&gt;relb0 -->
<g id="edge17" class="edge">
<title>main6&#45;&gt;relb0</title>
<path fill="none" stroke="black" d="M155,-171.17C143.24,-161.01 127.06,-147.03 113.79,-135.56"/>
<polygon fill="black" stroke="black" points="115.82,-132.69 105.97,-128.8 111.25,-137.99 115.82,-132.69"/>
</g>
<!-- rela -->
<g id="node9" class="node">
<title>rela</title>
<polygon fill="#33cc33" stroke="black" points="120,-348 60,-348 60,-312 120,-312 120,-348"/>
<text text-anchor="middle" x="90" y="-327.5" font-family="Times,serif" font-size="10.00">release&#45;2.0</text>
</g>
<!-- rela0&#45;&gt;rela -->
<g id="edge7" class="edge">
<title>rela0&#45;&gt;rela</title>
<path fill="none" stroke="black" d="M90,-383.7C90,-375.98 90,-366.71 90,-358.11"/>
<polygon fill="black" stroke="black" points="93.5,-358.1 90,-348.1 86.5,-358.1 93.5,-358.1"/>
</g>
<!-- rela&#45;&gt;main5 -->
<g id="edge16" class="edge">
<title>rela&#45;&gt;main5</title>
<path fill="none" stroke="black" d="M110.02,-311.7C121.29,-301.96 135.43,-289.74 147.25,-279.52"/>
<polygon fill="black" stroke="black" points="149.73,-282.01 155,-272.82 145.15,-276.72 149.73,-282.01"/>
</g>
<!-- rela&#45;&gt;relb0 -->
<g id="edge22" class="edge">
<title>rela&#45;&gt;relb0</title>
<path fill="none" stroke="#b0b0b0" d="M90,-311.85C90,-271.78 90,-172.38 90,-132.23"/>
</g>
<!-- relb -->
<g id="node11" class="node">
<title>relb</title>
<ellipse fill="#33cc33" stroke="black" cx="90" cy="-42" rx="30.04" ry="18"/>
<text text-anchor="middle" x="90" y="-39.5" font-family="Times,serif" font-size="10.00">fixes&#45;2.1</text>
</g>
<!-- relb0&#45;&gt;relb -->
<g id="edge8" class="edge">
<title>relb0&#45;&gt;relb</title>
<path fill="none" stroke="black" d="M90,-95.7C90,-87.98 90,-78.71 90,-70.11"/>
<polygon fill="black" stroke="black" points="93.5,-70.1 90,-60.1 86.5,-70.1 93.5,-70.1"/>
</g>
<!-- feata1 -->
<g id="node13" class="node">
<title>feata1</title>
<ellipse fill="#cc88dd" stroke="black" cx="327" cy="-402" rx="27" ry="18"/>
</g>
<!-- feata0&#45;&gt;feata1 -->
<g id="edge9" class="edge">
<title>feata0&#45;&gt;feata1</title>
<path fill="none" stroke="black" d="M327,-455.7C327,-447.98 327,-438.71 327,-430.11"/>
<polygon fill="black" stroke="black" points="330.5,-430.1 327,-420.1 323.5,-430.1 330.5,-430.1"/>
</g>
<!-- feata2 -->
<g id="node14" class="node">
<title>feata2</title>
<ellipse fill="#cc88dd" stroke="black" cx="327" cy="-330" rx="27" ry="18"/>
</g>
<!-- feata1&#45;&gt;feata2 -->
<g id="edge10" class="edge">
<title>feata1&#45;&gt;feata2</title>
<path fill="none" stroke="black" d="M327,-383.7C327,-375.98 327,-366.71 327,-358.11"/>
<polygon fill="black" stroke="black" points="330.5,-358.1 327,-348.1 323.5,-358.1 330.5,-358.1"/>
</g>
<!-- feata3 -->
<g id="node15" class="node">
<title>feata3</title>
<ellipse fill="#cc88dd" stroke="black" cx="327" cy="-258" rx="27" ry="18"/>
</g>
<!-- feata2&#45;&gt;feata3 -->
<g id="edge11" class="edge">
<title>feata2&#45;&gt;feata3</title>
<path fill="none" stroke="black" d="M327,-311.7C327,-303.98 327,-294.71 327,-286.11"/>
<polygon fill="black" stroke="black" points="330.5,-286.1 327,-276.1 323.5,-286.1 330.5,-286.1"/>
</g>
<!-- featb1 -->
<g id="node17" class="node">
<title>featb1</title>
<ellipse fill="#cc88dd" stroke="black" cx="249" cy="-186" rx="27" ry="18"/>
</g>
<!-- featb0&#45;&gt;featb1 -->
<g id="edge12" class="edge">
<title>featb0&#45;&gt;featb1</title>
<path fill="none" stroke="black" d="M249,-239.7C249,-231.98 249,-222.71 249,-214.11"/>
<polygon fill="black" stroke="black" points="252.5,-214.1 249,-204.1 245.5,-214.1 252.5,-214.1"/>
</g>
<!-- main_root -->
<g id="node18" class="node">
<title>main_root</title>
<polygon fill="transparent" stroke="transparent" points="214,-636 128,-636 128,-600 214,-600 214,-636"/>
<text text-anchor="middle" x="171" y="-614.3" font-family="Times,serif" font-size="14.00">Main branch</text>
</g>
<!-- main_root&#45;&gt;main1 -->
<g id="edge20" class="edge">
<title>main_root&#45;&gt;main1</title>
<path fill="none" stroke="#b0b0b0" d="M171,-599.7C171,-588.85 171,-574.92 171,-564.1"/>
</g>
<!-- feat_root -->
<g id="node19" class="node">
<title>feat_root</title>
<polygon fill="transparent" stroke="transparent" points="343.5,-564 234.5,-564 234.5,-528 343.5,-528 343.5,-564"/>
<text text-anchor="middle" x="289" y="-542.3" font-family="Times,serif" font-size="14.00">Feature branches</text>
</g>
<!-- feat_root&#45;&gt;feata0 -->
<g id="edge18" class="edge">
<title>feat_root&#45;&gt;feata0</title>
<path fill="none" stroke="#b0b0b0" d="M298.39,-527.7C302.93,-519.35 308.45,-509.17 313.43,-500"/>
</g>
<!-- feat_root&#45;&gt;featb0 -->
<g id="edge19" class="edge">
<title>feat_root&#45;&gt;featb0</title>
<path fill="none" stroke="#b0b0b0" d="M286.62,-527.97C279.85,-479.56 260.47,-341.03 252.5,-284"/>
</g>
<!-- rel_root -->
<g id="node20" class="node">
<title>rel_root</title>
<polygon fill="transparent" stroke="transparent" points="126,-492 16,-492 16,-456 126,-456 126,-492"/>
<text text-anchor="middle" x="71" y="-470.3" font-family="Times,serif" font-size="14.00">Release branches</text>
</g>
<!-- rel_root&#45;&gt;rela0 -->
<g id="edge21" class="edge">
<title>rel_root&#45;&gt;rela0</title>
<path fill="none" stroke="#b0b0b0" d="M75.7,-455.7C78.64,-444.85 82.42,-430.92 85.36,-420.1"/>
</g>
</g>
</svg>
