<?xml version="1.0" encoding="UTF-8" standalone="no"?>
<!DOCTYPE svg PUBLIC "-//W3C//DTD SVG 1.1//EN"
 "http://www.w3.org/Graphics/SVG/1.1/DTD/svg11.dtd">
<!-- Generated by graphviz version 2.44.1 (20200629.0846)
 -->
<!-- Pages: 1 -->
<svg width="166pt" height="292pt"
 viewBox="0.00 0.00 166.00 292.00" xmlns="http://www.w3.org/2000/svg" xmlns:xlink="http://www.w3.org/1999/xlink">
<g id="graph0" class="graph" transform="scale(1 1) rotate(0) translate(4 288)">
<polygon fill="transparent" stroke="transparent" points="-4,4 -4,-288 162,-288 162,4 -4,4"/>
<g id="clust1" class="cluster">
<title>cluster_all</title>
<path fill="#dddddd" stroke="transparent" d="M20,-8C20,-8 138,-8 138,-8 144,-8 150,-14 150,-20 150,-20 150,-264 150,-264 150,-270 144,-276 138,-276 138,-276 20,-276 20,-276 14,-276 8,-270 8,-264 8,-264 8,-20 8,-20 8,-14 14,-8 20,-8"/>
</g>
<!-- Base -->
<g id="node1" class="node">
<title>Base</title>
<ellipse fill="#777777" stroke="transparent" cx="79" cy="-250" rx="27.9" ry="18"/>
<text text-anchor="middle" x="79" y="-246.3" font-family="Times,serif" font-size="14.00" fill="white">Base</text>
</g>
<!-- A1 -->
<g id="node2" class="node">
<title>A1</title>
<ellipse fill="#bb7777" stroke="transparent" cx="43" cy="-178" rx="27" ry="18"/>
<text text-anchor="middle" x="43" y="-174.3" font-family="Times,serif" font-size="14.00" fill="white">A^</text>
</g>
<!-- Base&#45;&gt;A1 -->
<g id="edge1" class="edge">
<title>Base&#45;&gt;A1</title>
<path fill="none" stroke="black" d="M70.65,-232.76C66.29,-224.28 60.85,-213.71 55.96,-204.2"/>
<polygon fill="black" stroke="black" points="58.99,-202.44 51.3,-195.15 52.77,-205.64 58.99,-202.44"/>
</g>
<!-- B1 -->
<g id="node4" class="node">
<title>B1</title>
<ellipse fill="#7777bb" stroke="transparent" cx="115" cy="-178" rx="27" ry="18"/>
<text text-anchor="middle" x="115" y="-174.3" font-family="Times,serif" font-size="14.00" fill="white">B^</text>
</g>
<!-- Base&#45;&gt;B1 -->
<g id="edge3" class="edge">
<title>Base&#45;&gt;B1</title>
<path fill="none" stroke="black" d="M87.35,-232.76C91.71,-224.28 97.15,-213.71 102.04,-204.2"/>
<polygon fill="black" stroke="black" points="105.23,-205.64 106.7,-195.15 99.01,-202.44 105.23,-205.64"/>
</g>
<!-- A -->
<g id="node3" class="node">
<title>A</title>
<ellipse fill="#ff7777" stroke="transparent" cx="43" cy="-106" rx="27" ry="18"/>
<text text-anchor="middle" x="43" y="-102.3" font-family="Times,serif" font-size="14.00" fill="white">A</text>
</g>
<!-- A1&#45;&gt;A -->
<g id="edge2" class="edge">
<title>A1&#45;&gt;A</title>
<path fill="none" stroke="black" d="M43,-159.7C43,-151.98 43,-142.71 43,-134.11"/>
<polygon fill="black" stroke="black" points="46.5,-134.1 43,-124.1 39.5,-134.1 46.5,-134.1"/>
</g>
<!-- AB -->
<g id="node6" class="node">
<title>AB</title>
<ellipse fill="#ff77ff" stroke="transparent" cx="79" cy="-34" rx="32.49" ry="18"/>
<text text-anchor="middle" x="79" y="-30.3" font-family="Times,serif" font-size="14.00" fill="white">A + B</text>
</g>
<!-- A&#45;&gt;AB -->
<g id="edge5" class="edge">
<title>A&#45;&gt;AB</title>
<path fill="none" stroke="black" d="M51.35,-88.76C55.65,-80.4 60.99,-70.02 65.83,-60.61"/>
<polygon fill="black" stroke="black" points="68.98,-62.13 70.45,-51.63 62.76,-58.93 68.98,-62.13"/>
</g>
<!-- B -->
<g id="node5" class="node">
<title>B</title>
<ellipse fill="#7777ff" stroke="transparent" cx="115" cy="-106" rx="27" ry="18"/>
<text text-anchor="middle" x="115" y="-102.3" font-family="Times,serif" font-size="14.00" fill="white">B</text>
</g>
<!-- B1&#45;&gt;B -->
<g id="edge4" class="edge">
<title>B1&#45;&gt;B</title>
<path fill="none" stroke="black" d="M115,-159.7C115,-151.98 115,-142.71 115,-134.11"/>
<polygon fill="black" stroke="black" points="118.5,-134.1 115,-124.1 111.5,-134.1 118.5,-134.1"/>
</g>
<!-- B&#45;&gt;AB -->
<g id="edge6" class="edge">
<title>B&#45;&gt;AB</title>
<path fill="none" stroke="black" d="M106.65,-88.76C102.35,-80.4 97.01,-70.02 92.17,-60.61"/>
<polygon fill="black" stroke="black" points="95.24,-58.93 87.55,-51.63 89.02,-62.13 95.24,-58.93"/>
</g>
</g>
</svg>
