<?xml version="1.0" encoding="UTF-8" standalone="no"?>
<!DOCTYPE svg PUBLIC "-//W3C//DTD SVG 1.1//EN"
 "http://www.w3.org/Graphics/SVG/1.1/DTD/svg11.dtd">
<!-- Generated by graphviz version 2.44.1 (20200629.0846)
 -->
<!-- Pages: 1 -->
<svg width="342pt" height="357pt"
 viewBox="0.00 0.00 342.00 357.00" xmlns="http://www.w3.org/2000/svg" xmlns:xlink="http://www.w3.org/1999/xlink">
<g id="graph0" class="graph" transform="scale(1 1) rotate(0) translate(4 353)">
<polygon fill="transparent" stroke="transparent" points="-4,4 -4,-353 338,-353 338,4 -4,4"/>
<g id="clust1" class="cluster">
<title>cluster_all</title>
<path fill="#dddddd" stroke="transparent" d="M20,-8C20,-8 314,-8 314,-8 320,-8 326,-14 326,-20 326,-20 326,-329 326,-329 326,-335 320,-341 314,-341 314,-341 20,-341 20,-341 14,-341 8,-335 8,-329 8,-329 8,-20 8,-20 8,-14 14,-8 20,-8"/>
<text text-anchor="middle" x="167" y="-325.8" font-family="Times,serif" font-size="14.00">The Modal Flow State Machine</text>
</g>
<g id="clust2" class="cluster">
<title>cluster_freeze</title>
<path fill="#bbddbb" stroke="transparent" d="M28,-16C28,-16 242,-16 242,-16 248,-16 254,-22 254,-28 254,-28 254,-235 254,-235 254,-241 248,-247 242,-247 242,-247 28,-247 28,-247 22,-247 16,-241 16,-235 16,-235 16,-28 16,-28 16,-22 22,-16 28,-16"/>
<text text-anchor="middle" x="135" y="-231.8" font-family="Times,serif" font-size="14.00">Feature Freeze</text>
</g>
<!-- dev -->
<g id="node1" class="node">
<title>dev</title>
<path fill="#eecc33" stroke="black" d="M247,-310C247,-310 125,-310 125,-310 119,-310 113,-304 113,-298 113,-298 113,-286 113,-286 113,-280 119,-274 125,-274 125,-274 247,-274 247,-274 253,-274 259,-280 259,-286 259,-286 259,-298 259,-298 259,-304 253,-310 247,-310"/>
<text text-anchor="middle" x="186" y="-295.2" font-family="Times,serif" font-size="11.00">New Feature Development.</text>
<text text-anchor="middle" x="186" y="-283.2" font-family="Times,serif" font-size="11.00">Bugs probably introduced too</text>
</g>
<!-- candidate -->
<g id="node2" class="node">
<title>candidate</title>
<path fill="#33cc33" stroke="black" d="M206.5,-216C206.5,-216 165.5,-216 165.5,-216 159.5,-216 153.5,-210 153.5,-204 153.5,-204 153.5,-192 153.5,-192 153.5,-186 159.5,-180 165.5,-180 165.5,-180 206.5,-180 206.5,-180 212.5,-180 218.5,-186 218.5,-192 218.5,-192 218.5,-204 218.5,-204 218.5,-210 212.5,-216 206.5,-216"/>
<text text-anchor="middle" x="186" y="-195.2" font-family="Times,serif" font-size="11.00">Create RC</text>
</g>
<!-- dev&#45;&gt;candidate -->
<g id="edge1" class="edge">
<title>dev&#45;&gt;candidate</title>
<path fill="none" stroke="black" d="M186,-273.7C186,-268.78 186,-263.13 186,-257.19"/>
<polygon fill="black" stroke="black" points="189.5,-257 186,-247 182.5,-257 189.5,-257"/>
</g>
<!-- test -->
<g id="node4" class="node">
<title>test</title>
<path fill="#33cc33" stroke="black" d="M234,-143C234,-143 204,-143 204,-143 198,-143 192,-137 192,-131 192,-131 192,-119 192,-119 192,-113 198,-107 204,-107 204,-107 234,-107 234,-107 240,-107 246,-113 246,-119 246,-119 246,-131 246,-131 246,-137 240,-143 234,-143"/>
<text text-anchor="middle" x="219" y="-122.2" font-family="Times,serif" font-size="11.00">Test</text>
</g>
<!-- candidate&#45;&gt;test -->
<g id="edge2" class="edge">
<title>candidate&#45;&gt;test</title>
<path fill="none" stroke="black" d="M193.99,-179.81C197.84,-171.53 202.54,-161.41 206.83,-152.19"/>
<polygon fill="black" stroke="black" points="210.04,-153.57 211.09,-143.03 203.7,-150.62 210.04,-153.57"/>
</g>
<!-- fix -->
<g id="node3" class="node">
<title>fix</title>
<path fill="#33cc33" stroke="black" d="M206,-60C206,-60 174,-60 174,-60 168,-60 162,-54 162,-48 162,-48 162,-36 162,-36 162,-30 168,-24 174,-24 174,-24 206,-24 206,-24 212,-24 218,-30 218,-36 218,-36 218,-48 218,-48 218,-54 212,-60 206,-60"/>
<text text-anchor="middle" x="190" y="-39.2" font-family="Times,serif" font-size="11.00">Fix Bugs</text>
</g>
<!-- fix&#45;&gt;candidate -->
<g id="edge4" class="edge">
<title>fix&#45;&gt;candidate</title>
<path fill="none" stroke="black" d="M187.62,-60.07C185.95,-72.94 183.87,-91.04 183,-107 182.13,-122.98 182.56,-127.01 183,-143 183.24,-151.71 183.7,-161.2 184.19,-169.77"/>
<polygon fill="black" stroke="black" points="180.71,-170.22 184.81,-179.99 187.7,-169.79 180.71,-170.22"/>
</g>
<!-- test&#45;&gt;fix -->
<g id="edge3" class="edge">
<title>test&#45;&gt;fix</title>
<path fill="none" stroke="black" d="M207.66,-106.74C204.46,-101.25 201.25,-95.03 199,-89 196.82,-83.14 195.14,-76.65 193.85,-70.44"/>
<polygon fill="black" stroke="black" points="197.26,-69.62 192.04,-60.4 190.37,-70.87 197.26,-69.62"/>
<text text-anchor="middle" x="207.5" y="-81" font-family="Times,serif" font-size="10.00">Bad</text>
</g>
<!-- release -->
<g id="node6" class="node">
<title>release</title>
<path fill="#33cc33" stroke="black" d="M306,-60C306,-60 274,-60 274,-60 268,-60 262,-54 262,-48 262,-48 262,-36 262,-36 262,-30 268,-24 274,-24 274,-24 306,-24 306,-24 312,-24 318,-30 318,-36 318,-36 318,-48 318,-48 318,-54 312,-60 306,-60"/>
<text text-anchor="middle" x="290" y="-39.2" font-family="Times,serif" font-size="11.00">Release!</text>
</g>
<!-- test&#45;&gt;release -->
<g id="edge5" class="edge">
<title>test&#45;&gt;release</title>
<path fill="none" stroke="black" d="M232.81,-106.74C239.91,-98.01 248.77,-87.32 257,-78 260,-74.6 263.22,-71.06 266.42,-67.6"/>
<polygon fill="black" stroke="black" points="269.04,-69.93 273.32,-60.24 263.93,-65.14 269.04,-69.93"/>
<text text-anchor="middle" x="269" y="-81" font-family="Times,serif" font-size="10.00">Good</text>
</g>
<!-- feature_branch -->
<g id="node5" class="node">
<title>feature_branch</title>
<path fill="#cc88dd" stroke="transparent" d="M141.5,-143C141.5,-143 36.5,-143 36.5,-143 30.5,-143 24.5,-137 24.5,-131 24.5,-131 24.5,-119 24.5,-119 24.5,-113 30.5,-107 36.5,-107 36.5,-107 141.5,-107 141.5,-107 147.5,-107 153.5,-113 153.5,-119 153.5,-119 153.5,-131 153.5,-131 153.5,-137 147.5,-143 141.5,-143"/>
<text text-anchor="middle" x="89" y="-128" font-family="Times,serif" font-size="10.00">Keep feature development</text>
<text text-anchor="middle" x="89" y="-117" font-family="Times,serif" font-size="10.00">only in the feature branches</text>
</g>
<!-- release&#45;&gt;dev -->
<g id="edge6" class="edge">
<title>release&#45;&gt;dev</title>
<path fill="none" stroke="black" d="M291.84,-60.01C294.98,-97.31 297.63,-187.68 258,-247 252.32,-255.5 244.4,-262.63 235.87,-268.51"/>
<polygon fill="black" stroke="black" points="233.79,-265.69 227.19,-273.98 237.52,-271.61 233.79,-265.69"/>
</g>
</g>
</svg>
