<?xml version="1.0" encoding="UTF-8" standalone="no"?>
<!DOCTYPE svg PUBLIC "-//W3C//DTD SVG 1.1//EN"
 "http://www.w3.org/Graphics/SVG/1.1/DTD/svg11.dtd">
<!-- Generated by graphviz version 5.0.0 (20220707.1540)
 -->
<!-- Pages: 1 -->
<svg width="719pt" height="217pt"
 viewBox="0.00 0.00 719.00 217.00" xmlns="http://www.w3.org/2000/svg" xmlns:xlink="http://www.w3.org/1999/xlink">
<g id="graph0" class="graph" transform="scale(1 1) rotate(0) translate(4 213)">
<polygon fill="transparent" stroke="transparent" points="-4,4 -4,-213 715,-213 715,4 -4,4"/>
<g id="clust1" class="cluster">
<title>cluster_all</title>
<path fill="#eeeeee" stroke="transparent" d="M20,-8C20,-8 691,-8 691,-8 697,-8 703,-14 703,-20 703,-20 703,-189 703,-189 703,-195 697,-201 691,-201 691,-201 20,-201 20,-201 14,-201 8,-195 8,-189 8,-189 8,-20 8,-20 8,-14 14,-8 20,-8"/>
<text text-anchor="middle" x="355.5" y="-185.8" font-family="Times,serif" font-size="14.00">The Incomplete Programmer State Machine</text>
</g>
<!-- edit -->
<g id="node1" class="node">
<title>edit</title>
<path fill="#449944" stroke="transparent" d="M58,-64C58,-64 28,-64 28,-64 22,-64 16,-58 16,-52 16,-52 16,-38 16,-38 16,-32 22,-26 28,-26 28,-26 58,-26 58,-26 64,-26 70,-32 70,-38 70,-38 70,-52 70,-52 70,-58 64,-64 58,-64"/>
<text text-anchor="middle" x="43" y="-48.8" font-family="Times,serif" font-size="14.00" fill="white">Edit</text>
<text text-anchor="middle" x="43" y="-33.8" font-family="Times,serif" font-size="14.00" fill="white">Code</text>
</g>
<!-- err -->
<g id="node2" class="node">
<title>err</title>
<path fill="#aa5555" stroke="transparent" d="M148,-76C148,-76 118,-76 118,-76 112,-76 106,-70 106,-64 106,-64 106,-50 106,-50 106,-44 112,-38 118,-38 118,-38 148,-38 148,-38 154,-38 160,-44 160,-50 160,-50 160,-64 160,-64 160,-70 154,-76 148,-76"/>
<text text-anchor="middle" x="133" y="-60.8" font-family="Times,serif" font-size="14.00" fill="white">Fix</text>
<text text-anchor="middle" x="133" y="-45.8" font-family="Times,serif" font-size="14.00" fill="white">Errors</text>
</g>
<!-- edit&#45;&gt;err -->
<g id="edge1" class="edge">
<title>edit&#45;&gt;err</title>
<path fill="none" stroke="black" d="M70.4,-48.6C78.39,-49.69 87.31,-50.91 95.82,-52.07"/>
<polygon fill="black" stroke="black" points="95.54,-55.56 105.92,-53.44 96.48,-48.62 95.54,-55.56"/>
</g>
<!-- warn -->
<g id="node3" class="node">
<title>warn</title>
<path fill="#aa9944" stroke="transparent" d="M252,-74C252,-74 208,-74 208,-74 202,-74 196,-68 196,-62 196,-62 196,-50 196,-50 196,-44 202,-38 208,-38 208,-38 252,-38 252,-38 258,-38 264,-44 264,-50 264,-50 264,-62 264,-62 264,-68 258,-74 252,-74"/>
<text text-anchor="middle" x="230" y="-52.3" font-family="Times,serif" font-size="14.00" fill="white">Warnings</text>
</g>
<!-- err&#45;&gt;warn -->
<g id="edge2" class="edge">
<title>err&#45;&gt;warn</title>
<path fill="none" stroke="black" d="M160.21,-56.72C168.11,-56.64 176.99,-56.55 185.69,-56.46"/>
<polygon fill="black" stroke="black" points="185.77,-59.96 195.74,-56.35 185.7,-52.96 185.77,-59.96"/>
</g>
<!-- fmt -->
<g id="node4" class="node">
<title>fmt</title>
<path fill="#555599" stroke="transparent" d="M359,-74C359,-74 312,-74 312,-74 306,-74 300,-68 300,-62 300,-62 300,-50 300,-50 300,-44 306,-38 312,-38 312,-38 359,-38 359,-38 365,-38 371,-44 371,-50 371,-50 371,-62 371,-62 371,-68 365,-74 359,-74"/>
<text text-anchor="middle" x="335.5" y="-52.3" font-family="Times,serif" font-size="14.00" fill="white">Formatter</text>
</g>
<!-- warn&#45;&gt;fmt -->
<g id="edge3" class="edge">
<title>warn&#45;&gt;fmt</title>
<path fill="none" stroke="black" d="M264.03,-56C272.28,-56 281.26,-56 289.97,-56"/>
<polygon fill="black" stroke="black" points="290,-59.5 300,-56 290,-52.5 290,-59.5"/>
</g>
<!-- debug -->
<g id="node6" class="node">
<title>debug</title>
<path fill="#aa5555" stroke="transparent" d="M449,-53C449,-53 419,-53 419,-53 413,-53 407,-47 407,-41 407,-41 407,-29 407,-29 407,-23 413,-17 419,-17 419,-17 449,-17 449,-17 455,-17 461,-23 461,-29 461,-29 461,-41 461,-41 461,-47 455,-53 449,-53"/>
<text text-anchor="middle" x="434" y="-31.3" font-family="Times,serif" font-size="14.00" fill="white">Debug</text>
</g>
<!-- fmt&#45;&gt;debug -->
<g id="edge8" class="edge">
<title>fmt&#45;&gt;debug</title>
<path fill="none" stroke="transparent" d="M371.07,-48.48C379.45,-46.65 388.43,-44.7 396.88,-42.86"/>
<polygon fill="transparent" stroke="transparent" points="397.82,-46.24 406.85,-40.69 396.34,-39.4 397.82,-46.24"/>
</g>
<!-- merge -->
<g id="node7" class="node">
<title>merge</title>
<path fill="#aa4444" stroke="transparent" d="M449,-109C449,-109 419,-109 419,-109 413,-109 407,-103 407,-97 407,-97 407,-85 407,-85 407,-79 413,-73 419,-73 419,-73 449,-73 449,-73 455,-73 461,-79 461,-85 461,-85 461,-97 461,-97 461,-103 455,-109 449,-109"/>
<text text-anchor="middle" x="434" y="-87.3" font-family="Times,serif" font-size="14.00" fill="white">Merge</text>
</g>
<!-- fmt&#45;&gt;merge -->
<g id="edge4" class="edge">
<title>fmt&#45;&gt;merge</title>
<path fill="none" stroke="black" d="M371.07,-68.54C379.63,-71.64 388.83,-74.98 397.44,-78.1"/>
<polygon fill="black" stroke="black" points="396.26,-81.4 406.85,-81.52 398.64,-74.82 396.26,-81.4"/>
</g>
<!-- test -->
<g id="node5" class="node">
<title>test</title>
<path fill="#996655" stroke="transparent" d="M566,-94C566,-94 536,-94 536,-94 530,-94 524,-88 524,-82 524,-82 524,-68 524,-68 524,-62 530,-56 536,-56 536,-56 566,-56 566,-56 572,-56 578,-62 578,-68 578,-68 578,-82 578,-82 578,-88 572,-94 566,-94"/>
<text text-anchor="middle" x="551" y="-78.8" font-family="Times,serif" font-size="14.00" fill="white">Run</text>
<text text-anchor="middle" x="551" y="-63.8" font-family="Times,serif" font-size="14.00" fill="white">Tests</text>
</g>
<!-- test&#45;&gt;debug -->
<g id="edge14" class="edge">
<title>test&#45;&gt;debug</title>
<path fill="none" stroke="#aa4444" d="M523.61,-65.82C507.93,-60.37 487.84,-53.38 470.75,-47.44"/>
<polygon fill="#aa4444" stroke="#aa4444" points="471.69,-44.06 461.1,-44.08 469.39,-50.67 471.69,-44.06"/>
</g>
<!-- push -->
<g id="node8" class="node">
<title>push</title>
<path fill="#44aa44" stroke="transparent" d="M683,-73C683,-73 653,-73 653,-73 647,-73 641,-67 641,-61 641,-61 641,-49 641,-49 641,-43 647,-37 653,-37 653,-37 683,-37 683,-37 689,-37 695,-43 695,-49 695,-49 695,-61 695,-61 695,-67 689,-73 683,-73"/>
<text text-anchor="middle" x="668" y="-51.3" font-family="Times,serif" font-size="14.00" fill="white">Push</text>
</g>
<!-- test&#45;&gt;push -->
<g id="edge11" class="edge">
<title>test&#45;&gt;push</title>
<path fill="none" stroke="#116611" d="M578.1,-70.46C593.57,-67.77 613.43,-64.32 630.44,-61.36"/>
<polygon fill="#116611" stroke="#116611" points="631.36,-64.75 640.61,-59.59 630.16,-57.85 631.36,-64.75"/>
</g>
<!-- debug&#45;&gt;edit -->
<g id="edge5" class="edge">
<title>debug&#45;&gt;edit</title>
<path fill="none" stroke="black" d="M406.58,-31.95C350.79,-26.06 216.97,-14.91 106,-29 97.53,-30.07 88.57,-31.94 80.16,-34.04"/>
<polygon fill="black" stroke="black" points="79.04,-30.71 70.26,-36.66 80.83,-37.48 79.04,-30.71"/>
</g>
<!-- merge&#45;&gt;err -->
<g id="edge16" class="edge">
<title>merge&#45;&gt;err</title>
<path fill="none" stroke="#aa4444" d="M406.67,-93.18C362.51,-96.16 271.01,-99.41 196,-83 187.14,-81.06 177.94,-77.9 169.43,-74.44"/>
<polygon fill="#aa4444" stroke="#aa4444" points="170.73,-71.19 160.16,-70.46 167.97,-77.62 170.73,-71.19"/>
</g>
<!-- merge&#45;&gt;test -->
<g id="edge10" class="edge">
<title>merge&#45;&gt;test</title>
<path fill="none" stroke="#116611" d="M461.1,-87.37C476.57,-85.22 496.43,-82.45 513.44,-80.09"/>
<polygon fill="#116611" stroke="#116611" points="514.19,-83.52 523.61,-78.67 513.22,-76.58 514.19,-83.52"/>
</g>
<!-- slack -->
<g id="node10" class="node">
<title>slack</title>
<path fill="#449999" stroke="transparent" d="M593,-150C593,-150 509,-150 509,-150 503,-150 497,-144 497,-138 497,-138 497,-124 497,-124 497,-118 503,-112 509,-112 509,-112 593,-112 593,-112 599,-112 605,-118 605,-124 605,-124 605,-138 605,-138 605,-144 599,-150 593,-150"/>
<text text-anchor="middle" x="551" y="-134.8" font-family="Times,serif" font-size="14.00" fill="white">Slack off,</text>
<text text-anchor="middle" x="551" y="-119.8" font-family="Times,serif" font-size="14.00" fill="white">write a blog post</text>
</g>
<!-- merge&#45;&gt;slack -->
<g id="edge6" class="edge">
<title>merge&#45;&gt;slack</title>
<path fill="none" stroke="black" d="M461.1,-94.32C473.82,-97.85 489.49,-103.01 504.13,-108.42"/>
<polygon fill="black" stroke="black" points="502.96,-111.72 513.55,-111.99 505.44,-105.17 502.96,-111.72"/>
</g>
<!-- push&#45;&gt;merge -->
<g id="edge15" class="edge">
<title>push&#45;&gt;merge</title>
<path fill="none" stroke="#aa4444" d="M640.92,-48.26C606.92,-40.69 545.98,-31.39 497,-47 484.42,-51.01 472.21,-58.6 462,-66.36"/>
<polygon fill="#aa4444" stroke="#aa4444" points="459.53,-63.86 453.93,-72.85 463.92,-69.31 459.53,-63.86"/>
</g>
<!-- issues -->
<g id="node9" class="node">
<title>issues</title>
<path fill="#994499" stroke="transparent" d="M683,-149C683,-149 653,-149 653,-149 647,-149 641,-143 641,-137 641,-137 641,-125 641,-125 641,-119 647,-113 653,-113 653,-113 683,-113 683,-113 689,-113 695,-119 695,-125 695,-125 695,-137 695,-137 695,-143 689,-149 683,-149"/>
<text text-anchor="middle" x="668" y="-127.3" font-family="Times,serif" font-size="14.00" fill="white">Issues</text>
</g>
<!-- push&#45;&gt;issues -->
<g id="edge12" class="edge">
<title>push&#45;&gt;issues</title>
<path fill="none" stroke="#116611" d="M668,-73.11C668,-82.96 668,-92.8 668,-102.65"/>
<polygon fill="#116611" stroke="#116611" points="664.5,-102.91 668,-112.91 671.5,-102.91 664.5,-102.91"/>
</g>
<!-- issues&#45;&gt;edit -->
<g id="edge13" class="edge">
<title>issues&#45;&gt;edit</title>
<path fill="none" stroke="#116611" d="M640.99,-145.71C630.21,-151.01 617.35,-156.34 605,-159 558.08,-169.1 544.79,-163.48 497,-159 320.91,-142.48 270.25,-150.6 106,-85 96.19,-81.08 86.26,-75.53 77.31,-69.81"/>
<polygon fill="#116611" stroke="#116611" points="78.99,-66.73 68.73,-64.09 75.11,-72.55 78.99,-66.73"/>
</g>
<!-- issues&#45;&gt;debug -->
<g id="edge17" class="edge">
<title>issues&#45;&gt;debug</title>
<path fill="none" stroke="#554411" d="M656.01,-112.62C642.22,-90.26 618.74,-54.55 605,-47 563.47,-24.16 507.35,-25.21 471.16,-29.19"/>
<polygon fill="#554411" stroke="#554411" points="470.56,-25.74 461.06,-30.43 471.41,-32.68 470.56,-25.74"/>
</g>
<!-- slack&#45;&gt;merge -->
<g id="edge7" class="edge">
<title>slack&#45;&gt;merge</title>
<path fill="none" stroke="black" d="M496.75,-119.21C487.84,-116.18 478.8,-112.89 470.48,-109.63"/>
<polygon fill="black" stroke="black" points="471.68,-106.34 461.1,-105.84 469.06,-112.83 471.68,-106.34"/>
</g>
<!-- slack&#45;&gt;issues -->
<g id="edge9" class="edge">
<title>slack&#45;&gt;issues</title>
<path fill="none" stroke="transparent" d="M605.12,-131C613.72,-131 622.44,-131 630.52,-131"/>
<polygon fill="transparent" stroke="transparent" points="630.71,-134.5 640.71,-131 630.71,-127.5 630.71,-134.5"/>
</g>
</g>
</svg>
