<?xml version="1.0" encoding="UTF-8" standalone="no"?>
<!DOCTYPE svg PUBLIC "-//W3C//DTD SVG 1.1//EN"
 "http://www.w3.org/Graphics/SVG/1.1/DTD/svg11.dtd">
<!-- Generated by graphviz version 2.40.1 (20161225.0304)
 -->
<!-- Title: %3 Pages: 1 -->
<svg width="221pt" height="332pt"
 viewBox="0.00 0.00 221.00 332.00" xmlns="http://www.w3.org/2000/svg" xmlns:xlink="http://www.w3.org/1999/xlink">
<g id="graph0" class="graph" transform="scale(1 1) rotate(0) translate(4 328)">
<title>%3</title>
<polygon fill="transparent" stroke="transparent" points="-4,4 -4,-328 217,-328 217,4 -4,4"/>
<!-- Base -->
<g id="node1" class="node">
<title>Base</title>
<ellipse fill="#777777" stroke="#ffffff" cx="114" cy="-306" rx="27.0958" ry="18"/>
<text text-anchor="middle" x="114" y="-301.8" font-family="Times,serif" font-size="14.00" fill="#ffffff">Base</text>
</g>
<!-- A1 -->
<g id="node2" class="node">
<title>A1</title>
<ellipse fill="#bb7777" stroke="#ffffff" cx="78" cy="-234" rx="27" ry="18"/>
<text text-anchor="middle" x="78" y="-229.8" font-family="Times,serif" font-size="14.00" fill="#ffffff">A^</text>
</g>
<!-- Base&#45;&gt;A1 -->
<g id="edge1" class="edge">
<title>Base&#45;&gt;A1</title>
<path fill="none" stroke="#000000" d="M105.2854,-288.5708C101.0403,-280.0807 95.8464,-269.6929 91.1337,-260.2674"/>
<polygon fill="#000000" stroke="#000000" points="94.237,-258.6477 86.6343,-251.2687 87.976,-261.7782 94.237,-258.6477"/>
</g>
<!-- B1 -->
<g id="node4" class="node">
<title>B1</title>
<ellipse fill="#7777bb" stroke="#ffffff" cx="150" cy="-234" rx="27" ry="18"/>
<text text-anchor="middle" x="150" y="-229.8" font-family="Times,serif" font-size="14.00" fill="#ffffff">B^</text>
</g>
<!-- Base&#45;&gt;B1 -->
<g id="edge3" class="edge">
<title>Base&#45;&gt;B1</title>
<path fill="none" stroke="#000000" d="M122.7146,-288.5708C126.9597,-280.0807 132.1536,-269.6929 136.8663,-260.2674"/>
<polygon fill="#000000" stroke="#000000" points="140.024,-261.7782 141.3657,-251.2687 133.763,-258.6477 140.024,-261.7782"/>
</g>
<!-- A -->
<g id="node3" class="node">
<title>A</title>
<ellipse fill="#ff7777" stroke="#ffffff" cx="27" cy="-162" rx="27" ry="18"/>
<text text-anchor="middle" x="27" y="-157.8" font-family="Times,serif" font-size="14.00" fill="#ffffff">A</text>
</g>
<!-- A1&#45;&gt;A -->
<g id="edge2" class="edge">
<title>A1&#45;&gt;A</title>
<path fill="none" stroke="#000000" d="M66.4273,-217.6621C60.0628,-208.6768 52.0285,-197.3343 44.8756,-187.2362"/>
<polygon fill="#000000" stroke="#000000" points="47.5171,-184.9101 38.8808,-178.7729 41.8049,-188.9562 47.5171,-184.9101"/>
</g>
<!-- A1B1 -->
<g id="node7" class="node">
<title>A1B1</title>
<polygon fill="#bb77bb" stroke="#ffffff" points="158.3088,-154.5442 158.3088,-169.4558 132.9391,-180 97.0609,-180 71.6912,-169.4558 71.6912,-154.5442 97.0609,-144 132.9391,-144 158.3088,-154.5442"/>
<text text-anchor="middle" x="115" y="-157.8" font-family="Times,serif" font-size="14.00" fill="#ffffff">A^ + B^</text>
</g>
<!-- A1&#45;&gt;A1B1 -->
<g id="edge5" class="edge">
<title>A1&#45;&gt;A1B1</title>
<path fill="none" stroke="#000000" d="M86.7685,-216.937C91.0318,-208.6409 96.259,-198.469 101.0516,-189.1428"/>
<polygon fill="#000000" stroke="#000000" points="104.1899,-190.6932 105.6477,-180.1992 97.9639,-187.4937 104.1899,-190.6932"/>
</g>
<!-- AB1 -->
<g id="node8" class="node">
<title>AB1</title>
<polygon fill="#ff77bb" stroke="#ffffff" points="141.2788,-82.5442 141.2788,-97.4558 118.8556,-108 87.1444,-108 64.7212,-97.4558 64.7212,-82.5442 87.1444,-72 118.8556,-72 141.2788,-82.5442"/>
<text text-anchor="middle" x="103" y="-85.8" font-family="Times,serif" font-size="14.00" fill="#ffffff">A + B^</text>
</g>
<!-- A&#45;&gt;AB1 -->
<g id="edge7" class="edge">
<title>A&#45;&gt;AB1</title>
<path fill="none" stroke="#000000" d="M42.7472,-147.0816C52.805,-137.5532 66.074,-124.9825 77.5993,-114.0638"/>
<polygon fill="#000000" stroke="#000000" points="80.0176,-116.5941 84.87,-107.1757 75.2034,-111.5124 80.0176,-116.5941"/>
</g>
<!-- B -->
<g id="node5" class="node">
<title>B</title>
<ellipse fill="#7777ff" stroke="#ffffff" cx="186" cy="-90" rx="27" ry="18"/>
<text text-anchor="middle" x="186" y="-85.8" font-family="Times,serif" font-size="14.00" fill="#ffffff">B</text>
</g>
<!-- B1&#45;&gt;B -->
<g id="edge4" class="edge">
<title>B1&#45;&gt;B</title>
<path fill="none" stroke="#000000" d="M156.106,-216.1267C159.558,-205.6689 163.808,-192.1689 167,-180 172.3939,-159.4364 177.3159,-135.9219 180.7982,-118.0864"/>
<polygon fill="#000000" stroke="#000000" points="184.2768,-118.5303 182.7232,-108.0499 177.4021,-117.2116 184.2768,-118.5303"/>
</g>
<!-- B1&#45;&gt;A1B1 -->
<g id="edge6" class="edge">
<title>B1&#45;&gt;A1B1</title>
<path fill="none" stroke="#000000" d="M141.5275,-216.5708C137.5334,-208.3544 132.6754,-198.3608 128.2135,-189.1821"/>
<polygon fill="#000000" stroke="#000000" points="131.2798,-187.4841 123.76,-180.0206 124.9842,-190.5445 131.2798,-187.4841"/>
</g>
<!-- AB -->
<g id="node6" class="node">
<title>AB</title>
<ellipse fill="#ff77ff" stroke="#ffffff" cx="144" cy="-18" rx="31.1357" ry="18"/>
<text text-anchor="middle" x="144" y="-13.8" font-family="Times,serif" font-size="14.00" fill="#ffffff">A + B</text>
</g>
<!-- B&#45;&gt;AB -->
<g id="edge10" class="edge">
<title>B&#45;&gt;AB</title>
<path fill="none" stroke="#000000" d="M176.0466,-72.937C171.0465,-64.3654 164.8783,-53.7914 159.293,-44.2165"/>
<polygon fill="#000000" stroke="#000000" points="162.2357,-42.3149 154.1737,-35.4407 156.1893,-45.842 162.2357,-42.3149"/>
</g>
<!-- A1B1&#45;&gt;AB1 -->
<g id="edge8" class="edge">
<title>A1B1&#45;&gt;AB1</title>
<path fill="none" stroke="#000000" d="M111.9719,-143.8314C110.6885,-136.131 109.1624,-126.9743 107.7361,-118.4166"/>
<polygon fill="#000000" stroke="#000000" points="111.1653,-117.7018 106.0689,-108.4133 104.2606,-118.8526 111.1653,-117.7018"/>
</g>
<!-- AB1&#45;&gt;AB -->
<g id="edge9" class="edge">
<title>AB1&#45;&gt;AB</title>
<path fill="none" stroke="#000000" d="M113.346,-71.8314C118.1143,-63.4579 123.863,-53.3626 129.0875,-44.1878"/>
<polygon fill="#000000" stroke="#000000" points="132.1746,-45.8395 134.0816,-35.4177 126.0917,-42.3756 132.1746,-45.8395"/>
</g>
</g>
</svg>
